<svg width="46" height="287" viewBox="0 0 46 287" fill="none" xmlns="http://www.w3.org/2000/svg">
<mask id="path-1-outside-1_3113_1859" maskUnits="userSpaceOnUse" x="0" y="0" width="46" height="287" fill="black">
<rect fill="white" width="46" height="287"/>
<path d="M32.55 261.81V256.41H38.652L42.27 262.674V276.876L38.652 283.14H7.548L3.93 276.876L3.93 262.674L7.548 256.41H13.65L13.65 261.81H8.79V277.74H37.41V261.81H32.55ZM38.652 224.818L42.27 231.082L42.27 241.504L38.652 247.768H18.348L14.73 241.504V231.082L18.348 224.818H38.652ZM19.428 242.53H37.572L37.572 230.056H19.428V242.53ZM18.348 193.23H42V198.468H19.428L19.428 210.942H42V216.18H14.73V212.238L16.944 210.942L14.73 207.108L14.73 199.494L18.348 193.23ZM19.698 186.752H15V181.784H10.464L7.44 176.546H15V170.066H19.698V176.546H37.302V170.066H42V175.52L38.382 181.784H19.698V186.752ZM30.93 158.338H37.572V147.484H30.93V158.338ZM42.27 157.312L38.652 163.576H29.85L26.232 157.312V147.484H19.698V160.876H15V148.51L18.618 142.246H42.27V143.65L40.056 147.484L42.27 151.318V157.312ZM19.698 128.36H37.302L37.302 113.348H42L42 127.334L38.382 133.598H18.618L15 127.334V113.348H19.698V128.36ZM19.698 107.967H15V102.999H10.464L7.44 97.761H15V91.281H19.698V97.761H37.302V91.281H42V96.735L38.382 102.999H19.698V107.967ZM18.348 33.3419H42V38.5799H19.428V48.8939H42V54.1319H19.428V64.4459H42V69.6839H14.73V65.7419L16.944 64.4459L14.73 60.6119V55.1579L17.646 50.1359L14.73 45.0599V39.6059L18.348 33.3419ZM37.302 3.37148H42L42 18.4375L38.382 24.7015H18.348L14.73 18.4375V9.63548L18.348 3.37148H30.336L30.336 19.4635H37.302L37.302 3.37148ZM19.428 19.4635H25.638V8.60948H19.428V19.4635Z"/>
</mask>
<path d="M32.55 261.81H29.55V264.81H32.55V261.81ZM32.55 256.41V253.41H29.55V256.41H32.55ZM38.652 256.41L41.2498 254.91L40.3837 253.41H38.652V256.41ZM42.27 262.674H45.27V261.87L44.8678 261.174L42.27 262.674ZM42.27 276.876L44.8678 278.376L45.27 277.68V276.876H42.27ZM38.652 283.14V286.14H40.3837L41.2498 284.64L38.652 283.14ZM7.548 283.14L4.95019 284.64L5.8163 286.14H7.548V283.14ZM3.93 276.876H0.929997V277.68L1.33219 278.376L3.93 276.876ZM3.93 262.674L1.33219 261.174L0.929997 261.87V262.674H3.93ZM7.548 256.41V253.41H5.8163L4.95019 254.91L7.548 256.41ZM13.65 256.41H16.65V253.41H13.65V256.41ZM13.65 261.81V264.81H16.65V261.81H13.65ZM8.79 261.81L8.79 258.81H5.79V261.81H8.79ZM8.79 277.74H5.79V280.74H8.79V277.74ZM37.41 277.74V280.74H40.41V277.74H37.41ZM37.41 261.81H40.41V258.81H37.41V261.81ZM35.55 261.81V256.41H29.55V261.81H35.55ZM32.55 259.41H38.652V253.41H32.55V259.41ZM36.0542 257.91L39.6722 264.174L44.8678 261.174L41.2498 254.91L36.0542 257.91ZM39.27 262.674V276.876H45.27V262.674H39.27ZM39.6722 275.376L36.0542 281.64L41.2498 284.64L44.8678 278.376L39.6722 275.376ZM38.652 280.14H7.548V286.14H38.652V280.14ZM10.1458 281.64L6.52781 275.376L1.33219 278.376L4.95019 284.64L10.1458 281.64ZM6.93 276.876L6.93 262.674H0.929997L0.929997 276.876H6.93ZM6.52781 264.174L10.1458 257.91L4.95019 254.91L1.33219 261.174L6.52781 264.174ZM7.548 259.41H13.65V253.41H7.548V259.41ZM10.65 256.41L10.65 261.81H16.65L16.65 256.41H10.65ZM13.65 258.81H8.79L8.79 264.81H13.65L13.65 258.81ZM5.79 261.81L5.79 277.74H11.79V261.81H5.79ZM8.79 280.74H37.41V274.74H8.79V280.74ZM40.41 277.74V261.81H34.41V277.74H40.41ZM37.41 258.81H32.55V264.81H37.41V258.81ZM38.652 224.818L41.2498 223.317L40.3837 221.818H38.652V224.818ZM42.27 231.082H45.27V230.278L44.8678 229.581L42.27 231.082ZM42.27 241.504L44.8678 243.004L45.27 242.308V241.504H42.27ZM38.652 247.768V250.768H40.3837L41.2498 249.268L38.652 247.768ZM18.348 247.768L15.7502 249.268L16.6163 250.768H18.348V247.768ZM14.73 241.504H11.73V242.308L12.1322 243.004L14.73 241.504ZM14.73 231.082L12.1322 229.581L11.73 230.278V231.082H14.73ZM18.348 224.818V221.818H16.6163L15.7502 223.317L18.348 224.818ZM19.428 242.53H16.428V245.53H19.428V242.53ZM37.572 242.53V245.53H40.572V242.53H37.572ZM37.572 230.056H40.572V227.056H37.572V230.056ZM19.428 230.056V227.056H16.428V230.056H19.428ZM36.0542 226.318L39.6722 232.582L44.8678 229.581L41.2498 223.317L36.0542 226.318ZM39.27 231.082L39.27 241.504H45.27L45.27 231.082H39.27ZM39.6722 240.003L36.0542 246.267L41.2498 249.268L44.8678 243.004L39.6722 240.003ZM38.652 244.768H18.348V250.768H38.652V244.768ZM20.9458 246.267L17.3278 240.003L12.1322 243.004L15.7502 249.268L20.9458 246.267ZM17.73 241.504V231.082H11.73V241.504H17.73ZM17.3278 232.582L20.9458 226.318L15.7502 223.317L12.1322 229.581L17.3278 232.582ZM18.348 227.818H38.652V221.818H18.348V227.818ZM19.428 245.53H37.572V239.53H19.428V245.53ZM40.572 242.53L40.572 230.056H34.572L34.572 242.53H40.572ZM37.572 227.056H19.428V233.056H37.572L37.572 227.056ZM16.428 230.056V242.53H22.428V230.056H16.428ZM18.348 193.23V190.23H16.6163L15.7502 191.73L18.348 193.23ZM42 193.23H45V190.23H42V193.23ZM42 198.468V201.468H45V198.468H42ZM19.428 198.468V195.468H16.428V198.468H19.428ZM19.428 210.942H16.428V213.942H19.428V210.942ZM42 210.942H45V207.942H42V210.942ZM42 216.18V219.18H45V216.18H42ZM14.73 216.18H11.73V219.18H14.73V216.18ZM14.73 212.238L13.2145 209.649L11.73 210.518V212.238H14.73ZM16.944 210.942L18.4595 213.531L21.0333 212.024L19.5419 209.442L16.944 210.942ZM14.73 207.108H11.73V207.912L12.1321 208.608L14.73 207.108ZM14.73 199.494L12.1322 197.994L11.73 198.69V199.494H14.73ZM18.348 196.23H42V190.23H18.348V196.23ZM39 193.23V198.468H45V193.23H39ZM42 195.468H19.428V201.468H42V195.468ZM16.428 198.468L16.428 210.942H22.428L22.428 198.468H16.428ZM19.428 213.942H42V207.942H19.428V213.942ZM39 210.942V216.18H45V210.942H39ZM42 213.18H14.73V219.18H42V213.18ZM17.73 216.18V212.238H11.73V216.18H17.73ZM16.2455 214.827L18.4595 213.531L15.4285 208.353L13.2145 209.649L16.2455 214.827ZM19.5419 209.442L17.3279 205.608L12.1321 208.608L14.3461 212.442L19.5419 209.442ZM17.73 207.108L17.73 199.494H11.73L11.73 207.108H17.73ZM17.3278 200.994L20.9458 194.73L15.7502 191.73L12.1322 197.994L17.3278 200.994ZM19.698 186.752V189.752H22.698V186.752H19.698ZM15 186.752H12V189.752H15V186.752ZM15 181.784H18V178.784H15V181.784ZM10.464 181.784L7.86589 183.284L8.7319 184.784H10.464V181.784ZM7.44 176.546V173.546H2.24398L4.84189 178.046L7.44 176.546ZM15 176.546V179.546H18V176.546H15ZM15 170.066V167.066H12V170.066H15ZM19.698 170.066H22.698V167.066H19.698V170.066ZM19.698 176.546H16.698V179.546H19.698V176.546ZM37.302 176.546V179.546H40.302V176.546H37.302ZM37.302 170.066V167.066H34.302V170.066H37.302ZM42 170.066H45V167.066H42V170.066ZM42 175.52L44.5978 177.021L45 176.324V175.52H42ZM38.382 181.784V184.784H40.1137L40.9798 183.285L38.382 181.784ZM19.698 181.784V178.784H16.698V181.784H19.698ZM19.698 183.752H15V189.752H19.698V183.752ZM18 186.752V181.784H12V186.752H18ZM15 178.784H10.464V184.784H15V178.784ZM13.0621 180.284L10.0381 175.046L4.84189 178.046L7.86589 183.284L13.0621 180.284ZM7.44 179.546H15V173.546H7.44V179.546ZM18 176.546V170.066H12V176.546H18ZM15 173.066H19.698V167.066H15V173.066ZM16.698 170.066V176.546H22.698V170.066H16.698ZM19.698 179.546H37.302V173.546H19.698V179.546ZM40.302 176.546V170.066H34.302V176.546H40.302ZM37.302 173.066H42V167.066H37.302V173.066ZM39 170.066V175.52H45V170.066H39ZM39.4022 174.02L35.7842 180.284L40.9798 183.285L44.5978 177.021L39.4022 174.02ZM38.382 178.784H19.698V184.784H38.382V178.784ZM16.698 181.784V186.752H22.698V181.784H16.698ZM30.93 158.338H27.93V161.338H30.93V158.338ZM37.572 158.338V161.338H40.572V158.338H37.572ZM37.572 147.484H40.572V144.484H37.572V147.484ZM30.93 147.484V144.484H27.93V147.484H30.93ZM42.27 157.312L44.8678 158.813L45.27 158.117V157.312H42.27ZM38.652 163.576V166.576H40.3837L41.2498 165.077L38.652 163.576ZM29.85 163.576L27.2522 165.077L28.1183 166.576H29.85V163.576ZM26.232 157.312H23.232V158.117L23.6342 158.813L26.232 157.312ZM26.232 147.484H29.232V144.484H26.232V147.484ZM19.698 147.484L19.698 144.484H16.698L16.698 147.484H19.698ZM19.698 160.876V163.876H22.698V160.876H19.698ZM15 160.876H12V163.876H15V160.876ZM15 148.51L12.4022 147.01L12 147.706V148.51H15ZM18.618 142.246V139.246H16.8863L16.0202 140.746L18.618 142.246ZM42.27 142.246H45.27V139.246H42.27V142.246ZM42.27 143.65L44.8679 145.151L45.27 144.454V143.65H42.27ZM40.056 147.484L37.4581 145.984L36.5917 147.484L37.4581 148.985L40.056 147.484ZM42.27 151.318H45.27V150.514L44.8679 149.818L42.27 151.318ZM30.93 161.338H37.572V155.338H30.93V161.338ZM40.572 158.338V147.484H34.572V158.338H40.572ZM37.572 144.484H30.93V150.484H37.572V144.484ZM27.93 147.484V158.338H33.93V147.484H27.93ZM39.6722 155.812L36.0542 162.076L41.2498 165.077L44.8678 158.813L39.6722 155.812ZM38.652 160.576H29.85V166.576H38.652V160.576ZM32.4478 162.076L28.8298 155.812L23.6342 158.813L27.2522 165.077L32.4478 162.076ZM29.232 157.312V147.484H23.232V157.312H29.232ZM26.232 144.484H19.698L19.698 150.484H26.232V144.484ZM16.698 147.484V160.876H22.698V147.484H16.698ZM19.698 157.876H15V163.876H19.698V157.876ZM18 160.876V148.51H12V160.876H18ZM17.5978 150.011L21.2158 143.747L16.0202 140.746L12.4022 147.01L17.5978 150.011ZM18.618 145.246H42.27V139.246H18.618V145.246ZM39.27 142.246V143.65H45.27V142.246H39.27ZM39.6721 142.15L37.4581 145.984L42.6539 148.985L44.8679 145.151L39.6721 142.15ZM37.4581 148.985L39.6721 152.819L44.8679 149.818L42.6539 145.984L37.4581 148.985ZM39.27 151.318V157.312H45.27V151.318H39.27ZM19.698 128.36H16.698V131.36H19.698V128.36ZM37.302 128.36V131.36H40.302V128.36H37.302ZM37.302 113.348V110.348H34.302V113.348H37.302ZM42 113.348H45V110.348H42V113.348ZM42 127.334L44.5978 128.834L45 128.138V127.334H42ZM38.382 133.598V136.598H40.1137L40.9798 135.098L38.382 133.598ZM18.618 133.598L16.0202 135.098L16.8863 136.598H18.618V133.598ZM15 127.334H12V128.138L12.4022 128.834L15 127.334ZM15 113.348V110.348H12V113.348H15ZM19.698 113.348H22.698V110.348H19.698V113.348ZM19.698 131.36H37.302V125.36H19.698V131.36ZM40.302 128.36L40.302 113.348H34.302L34.302 128.36H40.302ZM37.302 116.348H42V110.348H37.302V116.348ZM39 113.348L39 127.334H45L45 113.348H39ZM39.4022 125.834L35.7842 132.098L40.9798 135.098L44.5978 128.834L39.4022 125.834ZM38.382 130.598H18.618V136.598H38.382V130.598ZM21.2158 132.098L17.5978 125.834L12.4022 128.834L16.0202 135.098L21.2158 132.098ZM18 127.334V113.348H12V127.334H18ZM15 116.348H19.698V110.348H15V116.348ZM16.698 113.348V128.36H22.698V113.348H16.698ZM19.698 107.967V110.967H22.698V107.967H19.698ZM15 107.967H12V110.967H15V107.967ZM15 102.999H18V99.9989H15V102.999ZM10.464 102.999L7.86589 104.499L8.7319 105.999H10.464V102.999ZM7.44 97.761V94.761H2.24398L4.84189 99.2609L7.44 97.761ZM15 97.761V100.761H18V97.761H15ZM15 91.281L15 88.281H12L12 91.281H15ZM19.698 91.281H22.698L22.698 88.281H19.698L19.698 91.281ZM19.698 97.761H16.698V100.761H19.698V97.761ZM37.302 97.761V100.761H40.302V97.761H37.302ZM37.302 91.281V88.281H34.302V91.281H37.302ZM42 91.281H45V88.281H42V91.281ZM42 96.735L44.5978 98.2354L45 97.5391V96.735H42ZM38.382 102.999V105.999H40.1137L40.9798 104.499L38.382 102.999ZM19.698 102.999V99.9989H16.698V102.999H19.698ZM19.698 104.967H15V110.967H19.698V104.967ZM18 107.967V102.999H12V107.967H18ZM15 99.9989H10.464V105.999H15V99.9989ZM13.0621 101.499L10.0381 96.261L4.84189 99.2609L7.86589 104.499L13.0621 101.499ZM7.44 100.761H15V94.761H7.44V100.761ZM18 97.761V91.281H12V97.761H18ZM15 94.281H19.698L19.698 88.281H15L15 94.281ZM16.698 91.281V97.761H22.698V91.281H16.698ZM19.698 100.761H37.302V94.761H19.698V100.761ZM40.302 97.761V91.281H34.302V97.761H40.302ZM37.302 94.281H42V88.281H37.302V94.281ZM39 91.281V96.735H45V91.281H39ZM39.4022 95.2345L35.7842 101.498L40.9798 104.499L44.5978 98.2354L39.4022 95.2345ZM38.382 99.9989H19.698V105.999H38.382V99.9989ZM16.698 102.999V107.967H22.698V102.999H16.698ZM18.348 33.3419V30.3419H16.6163L15.7502 31.8414L18.348 33.3419ZM42 33.3419H45V30.3419H42V33.3419ZM42 38.5799V41.5799H45V38.5799H42ZM19.428 38.5799V35.5799H16.428V38.5799H19.428ZM19.428 48.8939H16.428V51.8939H19.428V48.8939ZM42 48.8939H45V45.8939H42V48.8939ZM42 54.1319V57.1319H45V54.1319H42ZM19.428 54.1319V51.1319H16.428V54.1319H19.428ZM19.428 64.4459H16.428V67.4459H19.428V64.4459ZM42 64.4459H45V61.4459H42V64.4459ZM42 69.6839V72.6839H45V69.6839H42ZM14.73 69.6839H11.73V72.6839H14.73V69.6839ZM14.73 65.7419L13.2145 63.1529L11.73 64.0218V65.7419H14.73ZM16.944 64.4459L18.4595 67.0349L21.0333 65.5283L19.5419 62.9457L16.944 64.4459ZM14.73 60.6119H11.73V61.4159L12.1321 62.1121L14.73 60.6119ZM14.73 55.1579L12.1356 53.6515L11.73 54.3501V55.1579H14.73ZM17.646 50.1359L20.2404 51.6423L21.1104 50.1439L20.2473 48.6415L17.646 50.1359ZM14.73 45.0599H11.73V45.8603L12.1287 46.5543L14.73 45.0599ZM14.73 39.6059L12.1322 38.1054L11.73 38.8018V39.6059H14.73ZM18.348 36.3419H42V30.3419H18.348L18.348 36.3419ZM39 33.3419V38.5799H45V33.3419H39ZM42 35.5799H19.428V41.5799H42V35.5799ZM16.428 38.5799V48.8939H22.428V38.5799H16.428ZM19.428 51.8939H42V45.8939H19.428V51.8939ZM39 48.8939V54.1319H45V48.8939H39ZM42 51.1319H19.428V57.1319H42V51.1319ZM16.428 54.1319V64.4459H22.428V54.1319H16.428ZM19.428 67.4459H42V61.4459H19.428V67.4459ZM39 64.4459V69.6839H45V64.4459H39ZM42 66.6839H14.73V72.6839H42V66.6839ZM17.73 69.6839V65.7419H11.73V69.6839H17.73ZM16.2455 68.3309L18.4595 67.0349L15.4285 61.8569L13.2145 63.1529L16.2455 68.3309ZM19.5419 62.9457L17.3279 59.1117L12.1321 62.1121L14.3461 65.9461L19.5419 62.9457ZM17.73 60.6119V55.1579H11.73V60.6119H17.73ZM17.3244 56.6643L20.2404 51.6423L15.0516 48.6295L12.1356 53.6515L17.3244 56.6643ZM20.2473 48.6415L17.3313 43.5655L12.1287 46.5543L15.0447 51.6303L20.2473 48.6415ZM17.73 45.0599V39.6059H11.73V45.0599H17.73ZM17.3278 41.1064L20.9458 34.8424L15.7502 31.8414L12.1322 38.1054L17.3278 41.1064ZM37.302 3.37149V0.37149H34.302V3.37149H37.302ZM42 3.37149H45V0.37149H42V3.37149ZM42 18.4375L44.5978 19.938L45 19.2416V18.4375H42ZM38.382 24.7015V27.7015H40.1137L40.9798 26.2019L38.382 24.7015ZM18.348 24.7015L15.7502 26.2019L16.6163 27.7015H18.348V24.7015ZM14.73 18.4375H11.73V19.2416L12.1322 19.938L14.73 18.4375ZM14.73 9.6355L12.1322 8.13501L11.73 8.83136V9.6355H14.73ZM18.348 3.37149V0.37149H16.6163L15.7502 1.87103L18.348 3.37149ZM30.336 3.37149H33.336V0.37149H30.336V3.37149ZM30.336 19.4635H27.336V22.4635H30.336V19.4635ZM37.302 19.4635V22.4635H40.302V19.4635H37.302ZM19.428 19.4635H16.428V22.4635H19.428V19.4635ZM25.638 19.4635V22.4635H28.638V19.4635H25.638ZM25.638 8.6095H28.638L28.638 5.6095H25.638L25.638 8.6095ZM19.428 8.6095V5.6095H16.428V8.6095H19.428ZM37.302 6.37149H42L42 0.37149H37.302L37.302 6.37149ZM39 3.37149L39 18.4375H45L45 3.37149H39ZM39.4022 16.937L35.7842 23.201L40.9798 26.2019L44.5978 19.938L39.4022 16.937ZM38.382 21.7015H18.348V27.7015H38.382V21.7015ZM20.9458 23.201L17.3278 16.937L12.1322 19.938L15.7502 26.2019L20.9458 23.201ZM17.73 18.4375V9.6355H11.73V18.4375H17.73ZM17.3278 11.136L20.9458 4.87195L15.7502 1.87103L12.1322 8.13501L17.3278 11.136ZM18.348 6.37149H30.336L30.336 0.37149H18.348V6.37149ZM27.336 3.37149L27.336 19.4635H33.336L33.336 3.37149H27.336ZM30.336 22.4635H37.302V16.4635H30.336V22.4635ZM40.302 19.4635L40.302 3.37149H34.302L34.302 19.4635H40.302ZM19.428 22.4635H25.638V16.4635H19.428V22.4635ZM28.638 19.4635V8.6095H22.638V19.4635H28.638ZM25.638 5.6095H19.428V11.6095H25.638L25.638 5.6095ZM16.428 8.6095V19.4635H22.428V8.6095H16.428Z" fill="#B5E93B" mask="url(#path-1-outside-1_3113_1859)"/>
</svg>
