<?xml version="1.0" encoding="UTF-8" standalone="no"?><!DOCTYPE svg PUBLIC "-//W3C//DTD SVG 1.1//EN" "http://www.w3.org/Graphics/SVG/1.1/DTD/svg11.dtd"><svg width="100%" height="100%" viewBox="0 0 121 125" version="1.1" xmlns="http://www.w3.org/2000/svg" xmlns:xlink="http://www.w3.org/1999/xlink" xml:space="preserve" xmlns:serif="http://www.serif.com/" style="fill-rule:evenodd;clip-rule:evenodd;stroke-linejoin:round;stroke-miterlimit:2;"><path d="M90.537,25.346l-60.241,0c-4.141,0 -7.492,4.18 -7.492,9.289l-0.038,55.73c0,5.109 3.389,9.289 7.53,9.289l60.241,-0c4.142,-0 7.53,-4.18 7.53,-9.289l0,-55.73c0,-5.109 -3.388,-9.289 -7.53,-9.289Zm-1.506,19.738l-26.619,20.527c-1.205,0.93 -2.786,0.93 -3.991,0l-26.619,-20.527c-0.941,-0.743 -1.506,-1.997 -1.506,-3.344c-0,-3.111 2.749,-4.969 4.895,-3.343l25.226,19.459l25.226,-19.459c2.146,-1.626 4.894,0.232 4.894,3.343c0,1.347 -0.565,2.601 -1.506,3.344Z" style="fill:#b5e93b;fill-rule:nonzero;"/></svg>