<svg width="20" height="18" viewBox="0 0 20 18" fill="none" xmlns="http://www.w3.org/2000/svg">
<path d="M17.3436 0H2.54165C1.52402 0 0.700657 0.998308 0.700657 2.21846L0.691406 15.5292C0.691406 16.7494 1.52402 17.7477 2.54165 17.7477H17.3436C18.3612 17.7477 19.1938 16.7494 19.1938 15.5292V2.21846C19.1938 0.998308 18.3612 0 17.3436 0ZM16.9735 4.71423L10.4329 9.61703C10.1369 9.83888 9.74835 9.83888 9.45231 9.61703L2.9117 4.71423C2.68042 4.53675 2.54165 4.23726 2.54165 3.91559C2.54165 3.1724 3.21699 2.72871 3.74431 3.11694L9.94262 7.76462L16.1409 3.11694C16.6683 2.72871 17.3436 3.1724 17.3436 3.91559C17.3436 4.23726 17.2048 4.53675 16.9735 4.71423Z" fill="#FFFDFD"/>
</svg>
