<?xml version="1.0" encoding="UTF-8" standalone="no"?><!DOCTYPE svg PUBLIC "-//W3C//DTD SVG 1.1//EN" "http://www.w3.org/Graphics/SVG/1.1/DTD/svg11.dtd"><svg width="100%" height="100%" viewBox="0 0 2449 2181" version="1.1" xmlns="http://www.w3.org/2000/svg" xmlns:xlink="http://www.w3.org/1999/xlink" xml:space="preserve" xmlns:serif="http://www.serif.com/" style="fill-rule:evenodd;clip-rule:evenodd;stroke-linejoin:round;stroke-miterlimit:2;"><g><g id="AH"></g><g><path d="M1169.02,1769.32l-3.88,-0l-102.832,-292.973l-508.336,-0l-102.832,292.973l-267.75,-0l485.054,-1358.15l279.392,-0l221.184,619.317l0,738.835Zm-362.82,-1016.67l-170.739,490.875l343.418,-0l-168.799,-490.875l-3.88,0Z" style="fill:#b5e93b;stroke:#000;stroke-width:41.67px;"/><path d="M1432.89,1769.32l-263.87,-0l0,-738.835l263.87,738.835Z" style="fill:#b5e93b;stroke:#000;stroke-width:41.67px;"/><path d="M1169.02,1030.49l0,-619.317l271.631,-0l-0,543.261l533.559,-0l0,-543.261l271.63,-0l0,1358.15l-271.63,-0l0,-582.065l-533.559,-0l-0,582.065l-7.761,-0l-263.87,-738.835Z" style="fill:#b5e93b;stroke:#000;stroke-width:41.67px;"/></g></g></svg>