<?xml version="1.0" encoding="UTF-8" standalone="no"?>
<!DOCTYPE svg PUBLIC "-//W3C//DTD SVG 1.1//EN" "http://www.w3.org/Graphics/SVG/1.1/DTD/svg11.dtd">
<svg width="100%" height="100%" viewBox="0 0 1781 266" version="1.1" xmlns="http://www.w3.org/2000/svg" xmlns:xlink="http://www.w3.org/1999/xlink" xml:space="preserve" xmlns:serif="http://www.serif.com/" style="fill-rule:evenodd;clip-rule:evenodd;stroke-linejoin:round;stroke-miterlimit:2;">
    <g transform="matrix(1,0,0,1,-1.27898e-13,-204)">
        <g transform="matrix(0.926471,0,0,0.971482,67.7647,30.7999)">
            <rect x="0" y="89.929" width="1920" height="990.071" style="fill:none;"/>
        </g>
        <g transform="matrix(1.33319,0,0,1.33319,-16.2261,-85.2533)">
            <g transform="matrix(144,0,0,144,36.4588,360.988)">
                <path d="M0.225,-0.3L0.225,-0L0.085,-0L0.085,-0.7L0.514,-0.7L0.514,-0.58L0.225,-0.58L0.225,-0.42L0.454,-0.42L0.454,-0.3L0.225,-0.3Z" style="fill:none;fill-rule:nonzero;stroke:rgb(181,233,59);stroke-width:0.04px;"/>
            </g>
            <g transform="matrix(144,0,0,144,109.035,360.988)">
                <path d="M0.384,-0.383L0.212,-0.383L0.212,-0L0.075,-0L0.075,-0.5L0.188,-0.5L0.212,-0.459L0.283,-0.5L0.384,-0.5L0.384,-0.383Z" style="fill:none;fill-rule:nonzero;stroke:rgb(181,233,59);stroke-width:0.04px;"/>
            </g>
            <g transform="matrix(144,0,0,144,162.891,360.988)">
                <path d="M0.52,-0.062L0.404,0.005L0.191,0.005L0.075,-0.062L0.075,-0.438L0.191,-0.505L0.404,-0.505L0.52,-0.438L0.52,-0.062ZM0.212,-0.388L0.212,-0.112L0.383,-0.112L0.383,-0.388L0.212,-0.388Z" style="fill:none;fill-rule:nonzero;stroke:rgb(181,233,59);stroke-width:0.04px;"/>
            </g>
            <g transform="matrix(144,0,0,144,243.531,360.988)">
                <path d="M0.52,-0.438L0.52,-0L0.383,-0L0.383,-0.388L0.212,-0.388L0.212,-0L0.075,-0L0.075,-0.505L0.188,-0.505L0.212,-0.464L0.283,-0.505L0.404,-0.505L0.52,-0.438Z" style="fill:none;fill-rule:nonzero;stroke:rgb(181,233,59);stroke-width:0.04px;"/>
            </g>
            <g transform="matrix(144,0,0,144,324.171,360.988)">
                <path d="M0.035,-0.383L0.035,-0.5L0.127,-0.5L0.127,-0.584L0.264,-0.663L0.264,-0.5L0.374,-0.5L0.374,-0.383L0.264,-0.383L0.264,-0.117L0.374,-0.117L0.374,-0L0.243,-0L0.127,-0.067L0.127,-0.383L0.035,-0.383Z" style="fill:none;fill-rule:nonzero;stroke:rgb(181,233,59);stroke-width:0.04px;"/>
            </g>
            <g transform="matrix(144,0,0,144,380.907,360.988)">
                <path d="M0.49,-0.117L0.49,-0L0.191,-0L0.075,-0.067L0.075,-0.438L0.191,-0.505L0.374,-0.505L0.49,-0.438L0.49,-0.199L0.212,-0.199L0.212,-0.117L0.49,-0.117ZM0.212,-0.388L0.212,-0.302L0.353,-0.302L0.353,-0.388L0.212,-0.388Z" style="fill:none;fill-rule:nonzero;stroke:rgb(181,233,59);stroke-width:0.04px;"/>
            </g>
            <g transform="matrix(144,0,0,144,457.227,360.988)">
                <path d="M0.52,-0.438L0.52,-0L0.383,-0L0.383,-0.388L0.212,-0.388L0.212,-0L0.075,-0L0.075,-0.505L0.188,-0.505L0.212,-0.464L0.283,-0.505L0.404,-0.505L0.52,-0.438Z" style="fill:none;fill-rule:nonzero;stroke:rgb(181,233,59);stroke-width:0.04px;"/>
            </g>
            <g transform="matrix(144,0,0,144,537.867,360.988)">
                <path d="M0.191,-0.505L0.322,-0.505L0.393,-0.464L0.393,-0.73L0.53,-0.73L0.53,0.005L0.417,0.005L0.393,-0.036L0.322,0.005L0.191,0.005L0.075,-0.062L0.075,-0.438L0.191,-0.505ZM0.393,-0.112L0.393,-0.388L0.212,-0.388L0.212,-0.112L0.393,-0.112Z" style="fill:none;fill-rule:nonzero;stroke:rgb(181,233,59);stroke-width:0.04px;"/>
            </g>
            <g transform="matrix(144,0,0,144,652.347,360.988)">
                <path d="M0.63,-0.067L0.514,-0L0.085,-0L0.085,-0.7L0.514,-0.7L0.63,-0.633L0.63,-0.067ZM0.225,-0.58L0.225,-0.12L0.49,-0.12L0.49,-0.58L0.225,-0.58Z" style="fill:none;fill-rule:nonzero;stroke:rgb(181,233,59);stroke-width:0.04px;"/>
            </g>
            <g transform="matrix(144,0,0,144,750.267,360.988)">
                <path d="M0.49,-0.117L0.49,-0L0.191,-0L0.075,-0.067L0.075,-0.438L0.191,-0.505L0.374,-0.505L0.49,-0.438L0.49,-0.199L0.212,-0.199L0.212,-0.117L0.49,-0.117ZM0.212,-0.388L0.212,-0.302L0.353,-0.302L0.353,-0.388L0.212,-0.388Z" style="fill:none;fill-rule:nonzero;stroke:rgb(181,233,59);stroke-width:0.04px;"/>
            </g>
            <g transform="matrix(144,0,0,144,826.587,360.988)">
                <path d="M0.152,-0.5L0.267,-0.172L0.269,-0.172L0.385,-0.5L0.522,-0.5L0.337,-0L0.2,-0L0.015,-0.5L0.152,-0.5Z" style="fill:none;fill-rule:nonzero;stroke:rgb(181,233,59);stroke-width:0.04px;"/>
            </g>
            <g transform="matrix(144,0,0,144,898.875,360.988)">
                <path d="M0.49,-0.117L0.49,-0L0.191,-0L0.075,-0.067L0.075,-0.438L0.191,-0.505L0.374,-0.505L0.49,-0.438L0.49,-0.199L0.212,-0.199L0.212,-0.117L0.49,-0.117ZM0.212,-0.388L0.212,-0.302L0.353,-0.302L0.353,-0.388L0.212,-0.388Z" style="fill:none;fill-rule:nonzero;stroke:rgb(181,233,59);stroke-width:0.04px;"/>
            </g>
            <g transform="matrix(144,0,0,144,975.195,360.988)">
                <path d="M0.191,-0L0.075,-0.067L0.075,-0.73L0.212,-0.73L0.212,-0.117L0.312,-0.117L0.312,-0L0.191,-0Z" style="fill:none;fill-rule:nonzero;stroke:rgb(181,233,59);stroke-width:0.04px;"/>
            </g>
            <g transform="matrix(144,0,0,144,1017.24,360.988)">
                <path d="M0.52,-0.062L0.404,0.005L0.191,0.005L0.075,-0.062L0.075,-0.438L0.191,-0.505L0.404,-0.505L0.52,-0.438L0.52,-0.062ZM0.212,-0.388L0.212,-0.112L0.383,-0.112L0.383,-0.388L0.212,-0.388Z" style="fill:none;fill-rule:nonzero;stroke:rgb(181,233,59);stroke-width:0.04px;"/>
            </g>
            <g transform="matrix(144,0,0,144,1097.88,360.988)">
                <path d="M0.414,0.005L0.283,0.005L0.212,-0.036L0.212,0.2L0.075,0.2L0.075,-0.505L0.188,-0.505L0.212,-0.464L0.283,-0.505L0.414,-0.505L0.53,-0.438L0.53,-0.062L0.414,0.005ZM0.212,-0.388L0.212,-0.112L0.393,-0.112L0.393,-0.388L0.212,-0.388Z" style="fill:none;fill-rule:nonzero;stroke:rgb(181,233,59);stroke-width:0.04px;"/>
            </g>
            <g transform="matrix(144,0,0,144,1179.96,360.988)">
                <path d="M0.49,-0.117L0.49,-0L0.191,-0L0.075,-0.067L0.075,-0.438L0.191,-0.505L0.374,-0.505L0.49,-0.438L0.49,-0.199L0.212,-0.199L0.212,-0.117L0.49,-0.117ZM0.212,-0.388L0.212,-0.302L0.353,-0.302L0.353,-0.388L0.212,-0.388Z" style="fill:none;fill-rule:nonzero;stroke:rgb(181,233,59);stroke-width:0.04px;"/>
            </g>
            <g transform="matrix(144,0,0,144,1256.28,360.988)">
                <path d="M0.384,-0.383L0.212,-0.383L0.212,-0L0.075,-0L0.075,-0.5L0.188,-0.5L0.212,-0.459L0.283,-0.5L0.384,-0.5L0.384,-0.383Z" style="fill:none;fill-rule:nonzero;stroke:rgb(181,233,59);stroke-width:0.04px;"/>
            </g>
        </g>
        <g transform="matrix(1.02812,0,0,1,-50.0684,0)">
            <rect x="48.699" y="204" width="1731.57" height="265.412" style="fill:none;"/>
        </g>
    </g>
</svg>
