<?xml version="1.0" encoding="UTF-8" standalone="no"?><!DOCTYPE svg PUBLIC "-//W3C//DTD SVG 1.1//EN" "http://www.w3.org/Graphics/SVG/1.1/DTD/svg11.dtd"><svg width="100%" height="100%" viewBox="0 0 2094 2365" version="1.1" xmlns="http://www.w3.org/2000/svg" xmlns:xlink="http://www.w3.org/1999/xlink" xml:space="preserve" xmlns:serif="http://www.serif.com/" style="fill-rule:evenodd;clip-rule:evenodd;stroke-linecap:round;"><g><rect x="0" y="-0" width="2093.46" height="2123.36" style="fill:none;"/><clipPath id="_clip1"><rect id="Group-60.svg" serif:id="Group 60.svg" x="316.941" y="177.091" width="1459.58" height="1769.18"/></clipPath><g clip-path="url(#_clip1)"><path d="M316.941,912.478c0,353.16 402.928,783.372 721.371,1033.8c279.447,-231.162 685.625,-600.377 714.869,-1033.8c22.084,-327.335 -256.704,-744.855 -714.869,-735.223c-549.152,11.544 -721.371,443.056 -721.371,735.223Z" style="fill:#b5e93b;fill-rule:nonzero;"/><path d="M1202.91,830.707c-2.923,94.996 -78.675,169.801 -169.2,167.086c-90.52,-2.716 -161.535,-81.927 -158.611,-176.919c2.923,-94.991 78.675,-169.801 169.195,-167.086c90.525,2.716 161.536,81.927 158.616,176.919Z" style="fill:#4a4a4a;fill-rule:nonzero;"/></g><rect x="314.019" y="1586.65" width="1465.42" height="777.57" style="fill:none;"/><clipPath id="_clip2"><rect id="Ellipse-20.svg" serif:id="Ellipse 20.svg" x="533.885" y="1755.65" width="1025.69" height="439.581"/></clipPath><g clip-path="url(#_clip2)"><path d="M1361.17,1804.49c332.982,178.381 57.018,341.896 -310.789,341.896c-367.805,0 -643.77,-178.38 -332.984,-341.896" style="fill:none;fill-rule:nonzero;stroke:#fffdfd;stroke-width:97.68px;"/></g></g></svg>