<?xml version="1.0" encoding="UTF-8" standalone="no"?><!DOCTYPE svg PUBLIC "-//W3C//DTD SVG 1.1//EN" "http://www.w3.org/Graphics/SVG/1.1/DTD/svg11.dtd"><svg width="100%" height="100%" viewBox="0 0 2147 1746" version="1.1" xmlns="http://www.w3.org/2000/svg" xmlns:xlink="http://www.w3.org/1999/xlink" xml:space="preserve" xmlns:serif="http://www.serif.com/" style="fill-rule:evenodd;clip-rule:evenodd;stroke-linecap:round;"><g><rect x="-173.724" y="0" width="2513.21" height="1661.96" style="fill:none;"/><clipPath id="_clip1"><rect id="located-default.svg" x="644.229" y="299.281" width="877.305" height="1063.4"/></clipPath><g clip-path="url(#_clip1)"><path d="M644.229,741.299c-0,212.273 242.187,470.86 433.593,621.382c167.967,-138.944 412.107,-360.868 429.685,-621.382c13.274,-196.751 -154.296,-447.709 -429.685,-441.92c-330.078,6.939 -433.593,266.307 -433.593,441.92Z" style="fill:#b5e93b;fill-rule:nonzero;"/><path d="M1176.76,692.149c-1.757,57.099 -47.289,102.062 -101.701,100.43c-54.409,-1.633 -97.094,-49.244 -95.336,-106.34c1.757,-57.097 47.289,-102.063 101.698,-100.43c54.412,1.632 97.094,49.243 95.339,106.34Z" style="fill:#4a4a4a;fill-rule:nonzero;"/></g><rect x="550.127" y="634.093" width="1065.51" height="1111.84" style="fill:none;"/><clipPath id="_clip2"><rect id="Ellipse-20.svg" serif:id="Ellipse 20.svg" x="696.544" y="1187.89" width="772.674" height="331.146"/></clipPath><g clip-path="url(#_clip2)"><path d="M1319.75,1224.68c250.843,134.378 42.953,257.558 -234.124,257.558c-277.077,0 -484.967,-134.378 -250.845,-257.558" style="fill:none;fill-rule:nonzero;stroke:#fffdfd;stroke-width:73.59px;"/></g></g></svg>