<svg width="57" height="261" viewBox="0 0 57 261" fill="none" xmlns="http://www.w3.org/2000/svg">
<mask id="path-1-outside-1_3113_1878" maskUnits="userSpaceOnUse" x="0" y="0" width="57" height="261" fill="black">
<rect fill="white" width="57" height="261"/>
<path d="M43 224.2H12.22V224.308L43 235.432V240.832L12.22 251.902V252.01H43V257.14H5.2V249.526L36.736 238.186V238.078L5.2 226.684L5.2 219.07H43V224.2ZM43 204.665L43 209.903H3.58V204.665H17.944L15.73 200.831V192.677L19.348 186.413H43V191.651H20.428V204.665H43ZM53.8 175.303L41.758 170.605L16 181.027L16 175.789L35.224 168.121V168.013L16 160.399V155.161L53.8 170.173V175.303ZM5.2 90.0741L43 99.7941V106.22L12.706 114.212V114.32L43 122.312V128.738L5.2 138.458L5.2 133.22L36.088 125.552V125.444L5.2 117.29V111.242L36.088 103.142V103.034L5.2 95.3121V90.0741ZM39.652 61.1812L43.27 67.4452V77.8672L39.652 84.1312H19.348L15.73 77.8672V67.4452L19.348 61.1812H39.652ZM20.428 78.8932H38.572V66.4192H20.428V78.8932ZM20.698 37.4773V47.3053H43V52.5433H16V48.6013L18.214 47.3053L16 43.4713V37.4773H20.698ZM3.58 26.317H29.446V26.209L16 15.085V8.821L28.204 19.243L43 7.201V13.627L31.93 22.375L36.574 26.317H43V31.555H3.58V26.317Z"/>
</mask>
<path d="M43 224.2V227.2H46V224.2H43ZM12.22 224.2V221.2H9.22V224.2H12.22ZM12.22 224.308H9.22V226.414L11.2003 227.129L12.22 224.308ZM43 235.432H46V233.326L44.0197 232.611L43 235.432ZM43 240.832L44.0153 243.655L46 242.941V240.832H43ZM12.22 251.902L11.2047 249.079L9.22 249.793V251.902H12.22ZM12.22 252.01H9.22V255.01H12.22V252.01ZM43 252.01H46V249.01H43V252.01ZM43 257.14V260.14H46V257.14H43ZM5.2 257.14H2.2V260.14H5.2V257.14ZM5.2 249.526L4.18487 246.703L2.2 247.417L2.2 249.526H5.2ZM36.736 238.186L37.7511 241.009L39.736 240.295V238.186H36.736ZM36.736 238.078H39.736V235.972L37.7554 235.257L36.736 238.078ZM5.2 226.684H2.2V228.79L4.18059 229.505L5.2 226.684ZM5.2 219.07V216.07H2.2V219.07H5.2ZM43 219.07H46V216.07H43V219.07ZM43 221.2H12.22V227.2H43V221.2ZM9.22 224.2V224.308H15.22V224.2H9.22ZM11.2003 227.129L41.9803 238.253L44.0197 232.611L13.2397 221.487L11.2003 227.129ZM40 235.432V240.832H46V235.432H40ZM41.9847 238.009L11.2047 249.079L13.2353 254.725L44.0153 243.655L41.9847 238.009ZM9.22 251.902V252.01H15.22V251.902H9.22ZM12.22 255.01H43V249.01H12.22V255.01ZM40 252.01V257.14H46V252.01H40ZM43 254.14H5.2V260.14H43V254.14ZM8.2 257.14V249.526H2.2V257.14H8.2ZM6.21513 252.349L37.7511 241.009L35.7209 235.363L4.18487 246.703L6.21513 252.349ZM39.736 238.186V238.078H33.736V238.186H39.736ZM37.7554 235.257L6.21941 223.863L4.18059 229.505L35.7166 240.899L37.7554 235.257ZM8.2 226.684V219.07H2.2L2.2 226.684H8.2ZM5.2 222.07H43V216.07H5.2L5.2 222.07ZM40 219.07V224.2H46V219.07H40ZM43 204.665H46V201.665H43V204.665ZM43 209.903V212.903H46V209.903H43ZM3.58 209.903H0.579999V212.903H3.58V209.903ZM3.58 204.665V201.665H0.579999V204.665H3.58ZM17.944 204.665V207.665H23.1407L20.5419 203.164L17.944 204.665ZM15.73 200.831H12.73V201.635L13.1321 202.331L15.73 200.831ZM15.73 192.677L13.1322 191.176L12.73 191.873V192.677H15.73ZM19.348 186.413V183.413H17.6163L16.7502 184.912L19.348 186.413ZM43 186.413H46V183.413H43V186.413ZM43 191.651V194.651H46V191.651H43ZM20.428 191.651V188.651H17.428V191.651H20.428ZM20.428 204.665H17.428V207.665H20.428V204.665ZM40 204.665L40 209.903H46L46 204.665H40ZM43 206.903H3.58V212.903H43V206.903ZM6.58 209.903V204.665H0.579999V209.903H6.58ZM3.58 207.665H17.944V201.665H3.58V207.665ZM20.5419 203.164L18.3279 199.33L13.1321 202.331L15.3461 206.165L20.5419 203.164ZM18.73 200.831V192.677H12.73V200.831H18.73ZM18.3278 194.177L21.9458 187.913L16.7502 184.912L13.1322 191.176L18.3278 194.177ZM19.348 189.413H43V183.413H19.348V189.413ZM40 186.413V191.651H46V186.413H40ZM43 188.651H20.428V194.651H43V188.651ZM17.428 191.651V204.665H23.428V191.651H17.428ZM20.428 207.665H43L43 201.665H20.428V207.665ZM53.8 175.303L52.7096 178.098L56.8 179.694V175.303H53.8ZM41.758 170.605L42.8484 167.811L41.7378 167.377L40.6328 167.824L41.758 170.605ZM16 181.027H13V185.478L17.1252 183.808L16 181.027ZM16 175.789L14.8885 173.003L13 173.756V175.789H16ZM35.224 168.121L36.3355 170.908L38.224 170.155V168.121H35.224ZM35.224 168.013H38.224V165.975L36.3287 165.224L35.224 168.013ZM16 160.399H13V162.438L14.8953 163.189L16 160.399ZM16 155.161L17.1073 152.373L13 150.742V155.161H16ZM53.8 170.173H56.8V168.137L54.9073 167.385L53.8 170.173ZM54.8904 172.509L42.8484 167.811L40.6676 173.4L52.7096 178.098L54.8904 172.509ZM40.6328 167.824L14.8748 178.246L17.1252 183.808L42.8832 173.386L40.6328 167.824ZM19 181.027L19 175.789H13L13 181.027H19ZM17.1115 178.576L36.3355 170.908L34.1125 165.335L14.8885 173.003L17.1115 178.576ZM38.224 168.121V168.013H32.224V168.121H38.224ZM36.3287 165.224L17.1047 157.61L14.8953 163.189L34.1193 170.803L36.3287 165.224ZM19 160.399V155.161H13V160.399H19ZM14.8927 157.95L52.6927 172.962L54.9073 167.385L17.1073 152.373L14.8927 157.95ZM50.8 170.173V175.303H56.8V170.173H50.8ZM5.2 90.0741L5.94712 87.1686L2.2 86.2051V90.0741H5.2ZM43 99.7941H46V97.468L43.7471 96.8886L43 99.7941ZM43 106.22L43.7653 109.121L46 108.531V106.22H43ZM12.706 114.212L11.9407 111.311L9.706 111.901V114.212H12.706ZM12.706 114.32H9.706V116.631L11.9407 117.221L12.706 114.32ZM43 122.312H46V120.001L43.7653 119.411L43 122.312ZM43 128.738L43.7471 131.644L46 131.064V128.738H43ZM5.2 138.458H2.2V142.327L5.94712 141.364L5.2 138.458ZM5.2 133.22L4.47718 130.309L2.2 130.874V133.22H5.2ZM36.088 125.552L36.8108 128.464L39.088 127.898V125.552H36.088ZM36.088 125.444H39.088V123.133L36.8537 122.543L36.088 125.444ZM5.2 117.29H2.2V119.601L4.43427 120.191L5.2 117.29ZM5.2 111.242L4.43902 108.34L2.2 108.927V111.242H5.2ZM36.088 103.142L36.849 106.044L39.088 105.457V103.142H36.088ZM36.088 103.034H39.088V100.692L36.8156 100.124L36.088 103.034ZM5.2 95.3121H2.2V97.6544L4.47239 98.2225L5.2 95.3121ZM4.45287 92.9796L42.2529 102.7L43.7471 96.8886L5.94712 87.1686L4.45287 92.9796ZM40 99.7941V106.22H46V99.7941H40ZM42.2347 103.319L11.9407 111.311L13.4713 117.113L43.7653 109.121L42.2347 103.319ZM9.706 114.212V114.32H15.706V114.212H9.706ZM11.9407 117.221L42.2347 125.213L43.7653 119.411L13.4713 111.419L11.9407 117.221ZM40 122.312V128.738H46V122.312H40ZM42.2529 125.833L4.45287 135.553L5.94712 141.364L43.7471 131.644L42.2529 125.833ZM8.2 138.458V133.22H2.2L2.2 138.458H8.2ZM5.92281 136.132L36.8108 128.464L35.3652 122.641L4.47718 130.309L5.92281 136.132ZM39.088 125.552V125.444H33.088V125.552H39.088ZM36.8537 122.543L5.96572 114.389L4.43427 120.191L35.3223 128.345L36.8537 122.543ZM8.2 117.29V111.242H2.2V117.29H8.2ZM5.96098 114.144L36.849 106.044L35.327 100.24L4.43902 108.34L5.96098 114.144ZM39.088 103.142V103.034H33.088V103.142H39.088ZM36.8156 100.124L5.9276 92.4017L4.47239 98.2225L35.3604 105.945L36.8156 100.124ZM8.2 95.3121V90.0741H2.2V95.3121H8.2ZM39.652 61.1812L42.2498 59.6807L41.3837 58.1812H39.652V61.1812ZM43.27 67.4452H46.27V66.641L45.8678 65.9447L43.27 67.4452ZM43.27 77.8672L45.8678 79.3676L46.27 78.6713V77.8672H43.27ZM39.652 84.1312V87.1312H41.3837L42.2498 85.6316L39.652 84.1312ZM19.348 84.1312L16.7502 85.6316L17.6163 87.1312H19.348V84.1312ZM15.73 77.8672H12.73V78.6713L13.1322 79.3676L15.73 77.8672ZM15.73 67.4452L13.1322 65.9447L12.73 66.641V67.4452H15.73ZM19.348 61.1812V58.1812H17.6163L16.7502 59.6807L19.348 61.1812ZM20.428 78.8932H17.428V81.8932H20.428V78.8932ZM38.572 78.8932V81.8932H41.572V78.8932H38.572ZM38.572 66.4192H41.572V63.4192H38.572V66.4192ZM20.428 66.4192L20.428 63.4192H17.428L17.428 66.4192H20.428ZM37.0542 62.6816L40.6722 68.9456L45.8678 65.9447L42.2498 59.6807L37.0542 62.6816ZM40.27 67.4452V77.8672H46.27V67.4452H40.27ZM40.6722 76.3667L37.0542 82.6307L42.2498 85.6316L45.8678 79.3676L40.6722 76.3667ZM39.652 81.1312H19.348V87.1312H39.652V81.1312ZM21.9458 82.6307L18.3278 76.3667L13.1322 79.3676L16.7502 85.6316L21.9458 82.6307ZM18.73 77.8672V67.4452H12.73V77.8672H18.73ZM18.3278 68.9456L21.9458 62.6816L16.7502 59.6807L13.1322 65.9447L18.3278 68.9456ZM19.348 64.1812H39.652V58.1812H19.348V64.1812ZM20.428 81.8932H38.572V75.8932H20.428V81.8932ZM41.572 78.8932V66.4192H35.572V78.8932H41.572ZM38.572 63.4192H20.428L20.428 69.4192H38.572V63.4192ZM17.428 66.4192V78.8932H23.428V66.4192H17.428ZM20.698 37.4773H23.698V34.4773H20.698V37.4773ZM20.698 47.3053H17.698V50.3053H20.698V47.3053ZM43 47.3053H46V44.3053H43V47.3053ZM43 52.5433V55.5433H46V52.5433H43ZM16 52.5433H13V55.5433H16V52.5433ZM16 48.6013L14.4845 46.0122L13 46.8812V48.6013H16ZM18.214 47.3053L19.7295 49.8943L22.3033 48.3877L20.8119 45.8051L18.214 47.3053ZM16 43.4713H13V44.2753L13.4021 44.9715L16 43.4713ZM16 37.4773V34.4773H13V37.4773H16ZM17.698 37.4773V47.3053H23.698V37.4773H17.698ZM20.698 50.3053H43V44.3053H20.698V50.3053ZM40 47.3053V52.5433H46V47.3053H40ZM43 49.5433H16V55.5433H43V49.5433ZM19 52.5433V48.6013H13V52.5433H19ZM17.5155 51.1903L19.7295 49.8943L16.6985 44.7162L14.4845 46.0122L17.5155 51.1903ZM20.8119 45.8051L18.5979 41.9711L13.4021 44.9715L15.6161 48.8055L20.8119 45.8051ZM19 43.4713V37.4773H13V43.4713H19ZM16 40.4773H20.698V34.4773H16V40.4773ZM3.58 26.317V23.317H0.579999V26.317H3.58ZM29.446 26.317V29.317H32.446V26.317H29.446ZM29.446 26.209H32.446V24.7973L31.3583 23.8975L29.446 26.209ZM16 15.085H13V16.4967L14.0877 17.3965L16 15.085ZM16 8.821L17.9482 6.53967L13 2.314L13 8.821H16ZM28.204 19.243L26.2558 21.5243L28.1578 23.1486L30.0977 21.5698L28.204 19.243ZM43 7.201H46V0.891388L41.1063 4.87421L43 7.201ZM43 13.627L44.8601 15.9808L46 15.0799V13.627H43ZM31.93 22.375L30.07 20.0212L27.1964 22.292L29.9886 24.6621L31.93 22.375ZM36.574 26.317L34.6326 28.6041L35.4724 29.317H36.574V26.317ZM43 26.317H46V23.317H43V26.317ZM43 31.555V34.555H46V31.555H43ZM3.58 31.555H0.579999V34.555H3.58V31.555ZM3.58 29.317H29.446V23.317H3.58V29.317ZM32.446 26.317V26.209H26.446V26.317H32.446ZM31.3583 23.8975L17.9123 12.7735L14.0877 17.3965L27.5337 28.5205L31.3583 23.8975ZM19 15.085V8.821H13V15.085H19ZM14.0518 11.1023L26.2558 21.5243L30.1522 16.9617L17.9482 6.53967L14.0518 11.1023ZM30.0977 21.5698L44.8937 9.52779L41.1063 4.87421L26.3103 16.9162L30.0977 21.5698ZM40 7.201V13.627H46V7.201H40ZM41.1399 11.2732L30.07 20.0212L33.7901 24.7288L44.8601 15.9808L41.1399 11.2732ZM29.9886 24.6621L34.6326 28.6041L38.5154 24.0299L33.8714 20.0879L29.9886 24.6621ZM36.574 29.317H43V23.317H36.574V29.317ZM40 26.317V31.555H46V26.317H40ZM43 28.555H3.58V34.555H43V28.555ZM6.58 31.555V26.317H0.579999V31.555H6.58Z" fill="#B5E93B" mask="url(#path-1-outside-1_3113_1878)"/>
</svg>
