<svg width="20" height="22" viewBox="0 0 20 22" fill="none" xmlns="http://www.w3.org/2000/svg">
<path d="M5.29197 11.5079C6.44299 14.0016 8.29742 16.0371 10.5595 17.3148L12.318 15.3763C12.5338 15.1383 12.8535 15.059 13.1333 15.1648C14.0285 15.4908 14.9957 15.667 15.9869 15.667C16.4265 15.667 16.7862 16.0636 16.7862 16.5482V19.6235C16.7862 20.1082 16.4265 20.5047 15.9869 20.5047C8.48126 20.5047 2.39844 13.799 2.39844 5.52473C2.39844 5.04008 2.75813 4.64355 3.19776 4.64355H5.99538C6.435 4.64355 6.7947 5.04008 6.7947 5.52473C6.7947 6.6262 6.95456 7.68361 7.25031 8.67052C7.33823 8.97893 7.27429 9.32259 7.05048 9.56932L5.29197 11.5079Z" fill="#FFFDFD"/>
</svg>
