<?xml version="1.0" encoding="UTF-8" standalone="no"?><!DOCTYPE svg PUBLIC "-//W3C//DTD SVG 1.1//EN" "http://www.w3.org/Graphics/SVG/1.1/DTD/svg11.dtd"><svg width="100%" height="100%" viewBox="0 0 121 125" version="1.1" xmlns="http://www.w3.org/2000/svg" xmlns:xlink="http://www.w3.org/1999/xlink" xml:space="preserve" xmlns:serif="http://www.serif.com/" style="fill-rule:evenodd;clip-rule:evenodd;stroke-linejoin:round;stroke-miterlimit:2;"><rect x="18.459" y="25.179" width="86.918" height="76.434" style="fill:none;"/><path d="M38.948,57.417c5.199,11.262 13.574,20.456 23.791,26.226l7.942,-8.755c0.975,-1.075 2.419,-1.433 3.682,-0.955c4.043,1.472 8.412,2.268 12.888,2.268c1.986,0 3.61,1.791 3.61,3.98l0,13.889c0,2.19 -1.624,3.98 -3.61,3.98c-33.898,0 -61.371,-30.286 -61.371,-67.656c-0,-2.189 1.624,-3.98 3.61,-3.98l12.635,0c1.986,0 3.61,1.791 3.61,3.98c0,4.975 0.722,9.751 2.058,14.208c0.397,1.393 0.108,2.945 -0.903,4.059l-7.942,8.756Z" style="fill:#fffdfd;fill-rule:nonzero;"/></svg>