<svg width="46" height="284" viewBox="0 0 46 284" fill="none" xmlns="http://www.w3.org/2000/svg">
<mask id="path-1-outside-1_3113_1862" maskUnits="userSpaceOnUse" x="0" y="0" width="46" height="284" fill="black">
<rect fill="white" width="46" height="284"/>
<path d="M27.934 266.586V274.74H43V280.14H5.2L5.2 260.754L8.818 254.49H24.316L27.934 260.754L43 252.06V258.054L27.934 266.586ZM10.06 274.74H23.074V259.89H10.06V274.74ZM38.302 223.965H43L43 239.031L39.382 245.295H19.348L15.73 239.031V230.229L19.348 223.965H31.336L31.336 240.057H38.302L38.302 223.965ZM20.428 240.057H26.638V229.203H20.428V240.057ZM20.698 217.502H16V212.534H7.198L3.58 206.27V200.816H8.278V207.296H16V200.816H20.698V207.296H43V212.534H20.698V217.502ZM38.302 173.024H43V188.09L39.382 194.354H19.348L15.73 188.09V179.288L19.348 173.024H31.336V189.116H38.302V173.024ZM20.428 189.116H26.638V178.262H20.428V189.116ZM20.698 149.335V159.163H43V164.401H16V160.459L18.214 159.163L16 155.329V149.335H20.698ZM38.302 122.082H43V137.148L39.382 143.412H19.348L15.73 137.148V128.346L19.348 122.082H31.336V138.174H38.302V122.082ZM20.428 138.174H26.638V127.32H20.428V138.174ZM19.348 90.5093H43V95.7473H20.428V108.221H43V113.459H15.73V109.517L17.944 108.221L15.73 104.387V96.7733L19.348 90.5093ZM20.698 76.6334H38.302V61.6214H43V75.6074L39.382 81.8714H19.618L16 75.6074V61.6214H20.698V76.6334ZM38.302 32.7504H43V47.8164L39.382 54.0804H19.348L15.73 47.8164V39.0144L19.348 32.7504H31.336V48.8424H38.302V32.7504ZM20.428 48.8424H26.638V37.9884H20.428V48.8424ZM30.58 3.82326H39.382L43 10.0873V24.1273H38.302V9.06126H31.66V17.8633L28.042 24.1273H19.618L16 17.8633V4.36327H20.698V18.8893H26.962V10.0873L30.58 3.82326Z"/>
</mask>
<path d="M27.934 266.586L26.4557 263.976L24.934 264.837V266.586H27.934ZM27.934 274.74H24.934V277.74H27.934V274.74ZM43 274.74H46V271.74H43V274.74ZM43 280.14V283.14H46V280.14H43ZM5.2 280.14H2.2V283.14H5.2V280.14ZM5.2 260.754L2.60219 259.254L2.2 259.95V260.754H5.2ZM8.818 254.49V251.49H7.0863L6.22019 252.99L8.818 254.49ZM24.316 254.49L26.9138 252.99L26.0477 251.49H24.316V254.49ZM27.934 260.754L25.3362 262.254L26.8361 264.851L29.4334 263.352L27.934 260.754ZM43 252.06H46V246.865L41.5006 249.462L43 252.06ZM43 258.054L44.4783 260.664L46 259.803V258.054H43ZM10.06 274.74H7.06V277.74H10.06V274.74ZM23.074 274.74V277.74H26.074V274.74H23.074ZM23.074 259.89H26.074V256.89H23.074V259.89ZM10.06 259.89V256.89H7.06V259.89H10.06ZM24.934 266.586V274.74H30.934V266.586H24.934ZM27.934 277.74H43V271.74H27.934V277.74ZM40 274.74V280.14H46V274.74H40ZM43 277.14H5.2V283.14H43V277.14ZM8.2 280.14V260.754H2.2L2.2 280.14H8.2ZM7.79781 262.254L11.4158 255.99L6.22019 252.99L2.60219 259.254L7.79781 262.254ZM8.818 257.49H24.316V251.49H8.818L8.818 257.49ZM21.7182 255.99L25.3362 262.254L30.5318 259.254L26.9138 252.99L21.7182 255.99ZM29.4334 263.352L44.4994 254.658L41.5006 249.462L26.4346 258.156L29.4334 263.352ZM40 252.06V258.054H46V252.06H40ZM41.5217 255.444L26.4557 263.976L29.4123 269.196L44.4783 260.664L41.5217 255.444ZM10.06 277.74H23.074V271.74H10.06V277.74ZM26.074 274.74V259.89H20.074V274.74H26.074ZM23.074 256.89H10.06V262.89H23.074V256.89ZM7.06 259.89L7.06 274.74H13.06V259.89H7.06ZM38.302 223.965V220.965H35.302V223.965H38.302ZM43 223.965H46V220.965H43V223.965ZM43 239.031L45.5978 240.532L46 239.835V239.031H43ZM39.382 245.295V248.295H41.1137L41.9798 246.796L39.382 245.295ZM19.348 245.295L16.7502 246.796L17.6163 248.295H19.348V245.295ZM15.73 239.031H12.73V239.835L13.1322 240.532L15.73 239.031ZM15.73 230.229L13.1322 228.729L12.73 229.425V230.229H15.73ZM19.348 223.965V220.965H17.6163L16.7502 222.465L19.348 223.965ZM31.336 223.965H34.336V220.965H31.336V223.965ZM31.336 240.057H28.336V243.057H31.336V240.057ZM38.302 240.057V243.057H41.302V240.057H38.302ZM20.428 240.057H17.428V243.057H20.428V240.057ZM26.638 240.057V243.057H29.638V240.057H26.638ZM26.638 229.203H29.638L29.638 226.203H26.638L26.638 229.203ZM20.428 229.203V226.203H17.428V229.203H20.428ZM38.302 226.965H43V220.965H38.302V226.965ZM40 223.965L40 239.031H46L46 223.965H40ZM40.4022 237.531L36.7842 243.795L41.9798 246.796L45.5978 240.532L40.4022 237.531ZM39.382 242.295H19.348V248.295H39.382V242.295ZM21.9458 243.795L18.3278 237.531L13.1322 240.532L16.7502 246.796L21.9458 243.795ZM18.73 239.031V230.229H12.73V239.031H18.73ZM18.3278 231.73L21.9458 225.466L16.7502 222.465L13.1322 228.729L18.3278 231.73ZM19.348 226.965H31.336V220.965H19.348V226.965ZM28.336 223.965L28.336 240.057H34.336L34.336 223.965H28.336ZM31.336 243.057H38.302V237.057H31.336V243.057ZM41.302 240.057L41.302 223.965H35.302L35.302 240.057H41.302ZM20.428 243.057H26.638V237.057H20.428V243.057ZM29.638 240.057V229.203H23.638V240.057H29.638ZM26.638 226.203H20.428V232.203H26.638L26.638 226.203ZM17.428 229.203V240.057H23.428V229.203H17.428ZM20.698 217.502V220.502H23.698V217.502H20.698ZM16 217.502H13V220.502H16V217.502ZM16 212.534H19V209.534H16V212.534ZM7.198 212.534L4.60019 214.035L5.4663 215.534H7.198L7.198 212.534ZM3.58 206.27H0.579999V207.074L0.982188 207.771L3.58 206.27ZM3.58 200.816V197.816H0.579999V200.816H3.58ZM8.278 200.816H11.278L11.278 197.816H8.278L8.278 200.816ZM8.278 207.296H5.278V210.296H8.278V207.296ZM16 207.296V210.296H19V207.296H16ZM16 200.816L16 197.816H13L13 200.816H16ZM20.698 200.816H23.698L23.698 197.816H20.698L20.698 200.816ZM20.698 207.296H17.698V210.296H20.698V207.296ZM43 207.296H46V204.296H43V207.296ZM43 212.534V215.534H46V212.534H43ZM20.698 212.534V209.534H17.698V212.534H20.698ZM20.698 214.502H16V220.502H20.698V214.502ZM19 217.502V212.534H13V217.502H19ZM16 209.534H7.198L7.198 215.534H16V209.534ZM9.79581 211.034L6.17781 204.77L0.982188 207.771L4.60019 214.035L9.79581 211.034ZM6.58 206.27V200.816H0.579999V206.27H6.58ZM3.58 203.816H8.278L8.278 197.816H3.58V203.816ZM5.278 200.816V207.296H11.278V200.816H5.278ZM8.278 210.296H16V204.296H8.278V210.296ZM19 207.296V200.816H13V207.296H19ZM16 203.816H20.698L20.698 197.816H16L16 203.816ZM17.698 200.816V207.296H23.698V200.816H17.698ZM20.698 210.296H43V204.296H20.698V210.296ZM40 207.296V212.534H46V207.296H40ZM43 209.534H20.698V215.534H43V209.534ZM17.698 212.534V217.502H23.698V212.534H17.698ZM38.302 173.024V170.024H35.302V173.024H38.302ZM43 173.024H46V170.024H43V173.024ZM43 188.09L45.5978 189.59L46 188.894V188.09H43ZM39.382 194.354V197.354H41.1137L41.9798 195.854L39.382 194.354ZM19.348 194.354L16.7502 195.854L17.6163 197.354H19.348V194.354ZM15.73 188.09H12.73V188.894L13.1322 189.59L15.73 188.09ZM15.73 179.288L13.1322 177.787L12.73 178.484V179.288H15.73ZM19.348 173.024V170.024H17.6163L16.7502 171.523L19.348 173.024ZM31.336 173.024H34.336V170.024H31.336V173.024ZM31.336 189.116H28.336V192.116H31.336V189.116ZM38.302 189.116V192.116H41.302V189.116H38.302ZM20.428 189.116H17.428V192.116H20.428V189.116ZM26.638 189.116V192.116H29.638V189.116H26.638ZM26.638 178.262H29.638V175.262H26.638V178.262ZM20.428 178.262V175.262H17.428V178.262H20.428ZM38.302 176.024H43V170.024H38.302V176.024ZM40 173.024V188.09H46V173.024H40ZM40.4022 186.589L36.7842 192.853L41.9798 195.854L45.5978 189.59L40.4022 186.589ZM39.382 191.354H19.348V197.354H39.382V191.354ZM21.9458 192.853L18.3278 186.589L13.1322 189.59L16.7502 195.854L21.9458 192.853ZM18.73 188.09V179.288H12.73V188.09H18.73ZM18.3278 180.788L21.9458 174.524L16.7502 171.523L13.1322 177.787L18.3278 180.788ZM19.348 176.024H31.336V170.024H19.348V176.024ZM28.336 173.024V189.116H34.336V173.024H28.336ZM31.336 192.116H38.302V186.116H31.336V192.116ZM41.302 189.116V173.024H35.302V189.116H41.302ZM20.428 192.116H26.638V186.116H20.428V192.116ZM29.638 189.116V178.262H23.638V189.116H29.638ZM26.638 175.262H20.428V181.262H26.638V175.262ZM17.428 178.262V189.116H23.428V178.262H17.428ZM20.698 149.335H23.698V146.335H20.698V149.335ZM20.698 159.163H17.698V162.163H20.698V159.163ZM43 159.163H46V156.163H43V159.163ZM43 164.401V167.401H46V164.401H43ZM16 164.401H13V167.401H16V164.401ZM16 160.459L14.4845 157.87L13 158.739V160.459H16ZM18.214 159.163L19.7295 161.752L22.3033 160.245L20.8119 157.662L18.214 159.163ZM16 155.329H13V156.133L13.4021 156.829L16 155.329ZM16 149.335V146.335H13V149.335H16ZM17.698 149.335V159.163H23.698V149.335H17.698ZM20.698 162.163H43V156.163H20.698V162.163ZM40 159.163V164.401H46V159.163H40ZM43 161.401H16V167.401H43V161.401ZM19 164.401V160.459H13V164.401H19ZM17.5155 163.048L19.7295 161.752L16.6985 156.574L14.4845 157.87L17.5155 163.048ZM20.8119 157.662L18.5979 153.828L13.4021 156.829L15.6161 160.663L20.8119 157.662ZM19 155.329V149.335H13V155.329H19ZM16 152.335H20.698V146.335H16V152.335ZM38.302 122.082V119.082H35.302V122.082H38.302ZM43 122.082H46V119.082H43V122.082ZM43 137.148L45.5978 138.649L46 137.953V137.148H43ZM39.382 143.412V146.412H41.1137L41.9798 144.913L39.382 143.412ZM19.348 143.412L16.7502 144.913L17.6163 146.412H19.348L19.348 143.412ZM15.73 137.148H12.73V137.953L13.1322 138.649L15.73 137.148ZM15.73 128.346L13.1322 126.846L12.73 127.542V128.346H15.73ZM19.348 122.082V119.082H17.6163L16.7502 120.582L19.348 122.082ZM31.336 122.082H34.336V119.082H31.336V122.082ZM31.336 138.174H28.336V141.174H31.336V138.174ZM38.302 138.174V141.174H41.302V138.174H38.302ZM20.428 138.174H17.428V141.174H20.428V138.174ZM26.638 138.174V141.174H29.638V138.174H26.638ZM26.638 127.32H29.638V124.32H26.638V127.32ZM20.428 127.32V124.32H17.428V127.32H20.428ZM38.302 125.082H43V119.082H38.302V125.082ZM40 122.082V137.148H46V122.082H40ZM40.4022 135.648L36.7842 141.912L41.9798 144.913L45.5978 138.649L40.4022 135.648ZM39.382 140.412H19.348L19.348 146.412H39.382V140.412ZM21.9458 141.912L18.3278 135.648L13.1322 138.649L16.7502 144.913L21.9458 141.912ZM18.73 137.148V128.346H12.73V137.148H18.73ZM18.3278 129.847L21.9458 123.583L16.7502 120.582L13.1322 126.846L18.3278 129.847ZM19.348 125.082H31.336V119.082H19.348V125.082ZM28.336 122.082V138.174H34.336V122.082H28.336ZM31.336 141.174H38.302V135.174H31.336V141.174ZM41.302 138.174V122.082H35.302V138.174H41.302ZM20.428 141.174H26.638V135.174H20.428V141.174ZM29.638 138.174V127.32H23.638V138.174H29.638ZM26.638 124.32H20.428V130.32H26.638V124.32ZM17.428 127.32V138.174H23.428V127.32H17.428ZM19.348 90.5093L19.348 87.5093H17.6163L16.7502 89.0088L19.348 90.5093ZM43 90.5093H46V87.5093H43V90.5093ZM43 95.7473V98.7473H46V95.7473H43ZM20.428 95.7473V92.7473H17.428V95.7473H20.428ZM20.428 108.221H17.428V111.221H20.428V108.221ZM43 108.221H46V105.221H43V108.221ZM43 113.459L43 116.459H46L46 113.459H43ZM15.73 113.459H12.73V116.459H15.73V113.459ZM15.73 109.517L14.2145 106.928L12.73 107.797V109.517H15.73ZM17.944 108.221L19.4595 110.81L22.0333 109.304L20.5419 106.721L17.944 108.221ZM15.73 104.387H12.73V105.191L13.1321 105.888L15.73 104.387ZM15.73 96.7733L13.1322 95.2728L12.73 95.9692V96.7733H15.73ZM19.348 93.5093H43V87.5093H19.348L19.348 93.5093ZM40 90.5093V95.7473H46V90.5093H40ZM43 92.7473H20.428V98.7473H43V92.7473ZM17.428 95.7473V108.221H23.428V95.7473H17.428ZM20.428 111.221H43V105.221H20.428V111.221ZM40 108.221V113.459H46V108.221H40ZM43 110.459H15.73V116.459H43L43 110.459ZM18.73 113.459V109.517H12.73V113.459H18.73ZM17.2455 112.106L19.4595 110.81L16.4285 105.632L14.2145 106.928L17.2455 112.106ZM20.5419 106.721L18.3279 102.887L13.1321 105.888L15.3461 109.722L20.5419 106.721ZM18.73 104.387V96.7733H12.73V104.387H18.73ZM18.3278 98.2738L21.9458 92.0098L16.7502 89.0088L13.1322 95.2728L18.3278 98.2738ZM20.698 76.6334H17.698V79.6334H20.698V76.6334ZM38.302 76.6334V79.6334H41.302V76.6334H38.302ZM38.302 61.6214V58.6214H35.302V61.6214H38.302ZM43 61.6214H46V58.6214H43V61.6214ZM43 75.6074L45.5978 77.1079L46 76.4115V75.6074H43ZM39.382 81.8714V84.8714H41.1137L41.9798 83.3719L39.382 81.8714ZM19.618 81.8714L17.0202 83.3719L17.8863 84.8714H19.618V81.8714ZM16 75.6074H13V76.4115L13.4022 77.1079L16 75.6074ZM16 61.6214V58.6214H13V61.6214H16ZM20.698 61.6214H23.698V58.6214H20.698V61.6214ZM20.698 79.6334H38.302V73.6334H20.698V79.6334ZM41.302 76.6334V61.6214H35.302V76.6334H41.302ZM38.302 64.6214H43V58.6214H38.302V64.6214ZM40 61.6214V75.6074H46V61.6214H40ZM40.4022 74.1069L36.7842 80.3709L41.9798 83.3719L45.5978 77.1079L40.4022 74.1069ZM39.382 78.8714H19.618V84.8714H39.382V78.8714ZM22.2158 80.3709L18.5978 74.1069L13.4022 77.1079L17.0202 83.3719L22.2158 80.3709ZM19 75.6074V61.6214H13V75.6074H19ZM16 64.6214H20.698V58.6214H16V64.6214ZM17.698 61.6214V76.6334H23.698V61.6214H17.698ZM38.302 32.7504V29.7504H35.302V32.7504H38.302ZM43 32.7504H46V29.7504H43V32.7504ZM43 47.8164L45.5978 49.3168L46 48.6205V47.8164H43ZM39.382 54.0804V57.0804H41.1137L41.9798 55.5809L39.382 54.0804ZM19.348 54.0804L16.7502 55.5809L17.6163 57.0804H19.348V54.0804ZM15.73 47.8164H12.73V48.6205L13.1322 49.3168L15.73 47.8164ZM15.73 39.0144L13.1322 37.5139L12.73 38.2103V39.0144H15.73ZM19.348 32.7504L19.348 29.7504H17.6163L16.7502 31.2499L19.348 32.7504ZM31.336 32.7504H34.336V29.7504H31.336V32.7504ZM31.336 48.8424H28.336V51.8424H31.336V48.8424ZM38.302 48.8424V51.8424H41.302V48.8424H38.302ZM20.428 48.8424H17.428V51.8424H20.428V48.8424ZM26.638 48.8424V51.8424H29.638V48.8424H26.638ZM26.638 37.9884H29.638V34.9884H26.638V37.9884ZM20.428 37.9884V34.9884H17.428V37.9884H20.428ZM38.302 35.7504H43V29.7504H38.302V35.7504ZM40 32.7504V47.8164H46V32.7504H40ZM40.4022 46.3159L36.7842 52.5799L41.9798 55.5809L45.5978 49.3168L40.4022 46.3159ZM39.382 51.0804H19.348V57.0804H39.382V51.0804ZM21.9458 52.5799L18.3278 46.3159L13.1322 49.3168L16.7502 55.5809L21.9458 52.5799ZM18.73 47.8164V39.0144H12.73V47.8164H18.73ZM18.3278 40.5148L21.9458 34.2509L16.7502 31.2499L13.1322 37.5139L18.3278 40.5148ZM19.348 35.7504H31.336V29.7504H19.348L19.348 35.7504ZM28.336 32.7504V48.8424H34.336V32.7504H28.336ZM31.336 51.8424H38.302V45.8424H31.336V51.8424ZM41.302 48.8424V32.7504H35.302V48.8424H41.302ZM20.428 51.8424H26.638V45.8424H20.428V51.8424ZM29.638 48.8424V37.9884H23.638V48.8424H29.638ZM26.638 34.9884H20.428V40.9884H26.638V34.9884ZM17.428 37.9884V48.8424H23.428V37.9884H17.428ZM30.58 3.82327L30.58 0.823273H28.8483L27.9822 2.32281L30.58 3.82327ZM39.382 3.82327L41.9798 2.32281L41.1137 0.823273H39.382L39.382 3.82327ZM43 10.0873H46V9.28314L45.5978 8.58679L43 10.0873ZM43 24.1273V27.1273H46V24.1273H43ZM38.302 24.1273H35.302V27.1273H38.302V24.1273ZM38.302 9.06128H41.302V6.06128H38.302V9.06128ZM31.66 9.06128V6.06128H28.66V9.06128H31.66ZM31.66 17.8633L34.2578 19.3637L34.66 18.6674V17.8633H31.66ZM28.042 24.1273V27.1273H29.7737L30.6398 25.6277L28.042 24.1273ZM19.618 24.1273L17.0202 25.6277L17.8863 27.1273H19.618V24.1273ZM16 17.8633H13V18.6674L13.4022 19.3637L16 17.8633ZM16 4.36325V1.36325H13V4.36325H16ZM20.698 4.36325H23.698V1.36325H20.698V4.36325ZM20.698 18.8893H17.698V21.8893H20.698V18.8893ZM26.962 18.8893V21.8893H29.962V18.8893H26.962ZM26.962 10.0873L24.3642 8.58679L23.962 9.28314V10.0873H26.962ZM30.58 6.82327H39.382L39.382 0.823273H30.58L30.58 6.82327ZM36.7842 5.32373L40.4022 11.5877L45.5978 8.58679L41.9798 2.32281L36.7842 5.32373ZM40 10.0873V24.1273H46V10.0873H40ZM43 21.1273H38.302V27.1273H43V21.1273ZM41.302 24.1273V9.06128H35.302V24.1273H41.302ZM38.302 6.06128H31.66V12.0613H38.302V6.06128ZM28.66 9.06128V17.8633H34.66V9.06128H28.66ZM29.0622 16.3628L25.4442 22.6268L30.6398 25.6277L34.2578 19.3637L29.0622 16.3628ZM28.042 21.1273H19.618V27.1273H28.042V21.1273ZM22.2158 22.6268L18.5978 16.3628L13.4022 19.3637L17.0202 25.6277L22.2158 22.6268ZM19 17.8633V4.36325H13V17.8633H19ZM16 7.36325H20.698V1.36325H16V7.36325ZM17.698 4.36325V18.8893H23.698V4.36325H17.698ZM20.698 21.8893H26.962V15.8893H20.698V21.8893ZM29.962 18.8893V10.0873H23.962V18.8893H29.962ZM29.5598 11.5877L33.1778 5.32373L27.9822 2.32281L24.3642 8.58679L29.5598 11.5877Z" fill="#B5E93B" mask="url(#path-1-outside-1_3113_1862)"/>
</svg>
