<?xml version="1.0" encoding="UTF-8" standalone="no"?><!DOCTYPE svg PUBLIC "-//W3C//DTD SVG 1.1//EN" "http://www.w3.org/Graphics/SVG/1.1/DTD/svg11.dtd"><svg width="100%" height="100%" viewBox="0 0 2147 1746" version="1.1" xmlns="http://www.w3.org/2000/svg" xmlns:xlink="http://www.w3.org/1999/xlink" xml:space="preserve" xmlns:serif="http://www.serif.com/" style="fill-rule:evenodd;clip-rule:evenodd;"><g><rect x="-173.724" y="104.483" width="2513.21" height="1661.96" style="fill:none;"/><clipPath id="_clip1"><rect id="relocate-default.svg" x="770.381" y="425.047" width="625" height="1020.83"/></clipPath><g clip-path="url(#_clip1)"><path d="M913.272,1300.14c39.44,5.355 66.234,40.069 59.797,77.473c-6.436,37.404 -43.682,63.423 -83.122,58.069c-39.44,-5.355 -66.234,-40.069 -59.797,-77.473c6.437,-37.404 43.683,-63.424 83.122,-58.069Z" style="fill:#fffdfd;"/><path d="M1271.81,1300.14c39.44,5.355 66.234,40.069 59.797,77.473c-6.437,37.404 -43.683,63.423 -83.123,58.069c-39.44,-5.355 -66.234,-40.069 -59.797,-77.473c6.437,-37.404 43.683,-63.424 83.123,-58.069Z" style="fill:#fffdfd;"/><path d="M1231.92,466.714l-0,240.104c-0,11.498 -9.335,20.834 -20.834,20.834l-253.204,-0c-11.498,-0 -20.833,-9.336 -20.833,-20.834l-0,-240.104c-0,-11.498 9.335,-20.833 20.833,-20.833l253.204,-0c11.499,-0 20.834,9.335 20.834,20.833Z" style="fill:none;stroke:#fffdfd;stroke-width:41.67px;"/><path d="M1395.38,672.54l0,622.35c0,22.996 -18.67,41.667 -41.666,41.667l-541.667,-0c-22.997,-0 -41.667,-18.671 -41.667,-41.667l0,-622.35c0,-22.997 18.67,-41.667 41.667,-41.667l541.667,0c22.996,0 41.666,18.67 41.666,41.667Z" style="fill:#b5e93b;"/></g></g></svg>