<?xml version="1.0" encoding="UTF-8" standalone="no"?><!DOCTYPE svg PUBLIC "-//W3C//DTD SVG 1.1//EN" "http://www.w3.org/Graphics/SVG/1.1/DTD/svg11.dtd"><svg width="100%" height="100%" viewBox="0 0 2730 2375" version="1.1" xmlns="http://www.w3.org/2000/svg" xmlns:xlink="http://www.w3.org/1999/xlink" xml:space="preserve" xmlns:serif="http://www.serif.com/" style="fill-rule:evenodd;clip-rule:evenodd;"><g><rect x="-662.103" y="-131.589" width="4113.65" height="2673.64" style="fill:none;"/><path d="M1083.4,1187.59c-0,-33.638 27.274,-60.912 60.912,-60.912l1290.06,0c33.643,0 60.912,27.274 60.912,60.912l0,830.263l-1411.88,-0l-0,-830.263Z" style="fill:#4a4a4a;fill-rule:nonzero;stroke:#b5e93b;stroke-width:73.09px;"/><path d="M882.536,2130.77l1807.42,0l0,72.89c0,80.741 -65.454,146.19 -146.189,146.19l-1515.05,-0c-80.74,-0 -146.189,-65.449 -146.189,-146.19l-0,-72.89Z" style="fill:#b5e93b;fill-rule:nonzero;"/><path d="M1977.94,2212.93c0,15.114 -12.271,27.385 -27.385,27.385l-273.853,-0c-15.114,-0 -27.385,-12.271 -27.385,-27.385c0,-15.115 12.271,-27.385 27.385,-27.385l273.853,-0c15.114,-0 27.385,12.27 27.385,27.385Z" style="fill:#140754;"/><path d="M1174.89,718.584c-316.743,-48.73 -438.563,121.82 -476.299,414.91" style="fill:none;fill-rule:nonzero;stroke:#fffdfd;stroke-width:97.46px;stroke-linecap:round;"/><path d="M1199.27,450.568c-490.378,-47.066 -767.878,243.793 -787.541,676.362" style="fill:none;fill-rule:nonzero;stroke:#fffdfd;stroke-width:97.46px;stroke-linecap:round;"/><rect x="-566.745" y="-408.879" width="1776.45" height="1564.11" style="fill:none;"/><clipPath id="_clip1"><rect id="Vector-23.svg" serif:id="Vector 23.svg" x="114.194" y="151.016" width="1095.51" height="1004.22"/></clipPath><g clip-path="url(#_clip1)"><path d="M1162.62,205.633c-584.113,-57.686 -981.392,319.521 -981.398,890.101" style="fill:none;fill-rule:nonzero;stroke:#fffdfd;stroke-width:91.29px;stroke-linecap:round;"/></g></g></svg>