<?xml version="1.0" encoding="UTF-8" standalone="no"?><!DOCTYPE svg PUBLIC "-//W3C//DTD SVG 1.1//EN" "http://www.w3.org/Graphics/SVG/1.1/DTD/svg11.dtd"><svg width="100%" height="100%" viewBox="0 0 2147 1746" version="1.1" xmlns="http://www.w3.org/2000/svg" xmlns:xlink="http://www.w3.org/1999/xlink" xml:space="preserve" xmlns:serif="http://www.serif.com/" style="fill-rule:evenodd;clip-rule:evenodd;"><g><rect x="-173.724" y="0" width="2513.21" height="1661.96" style="fill:none;"/><path d="M871.75,819.014c-0,-22.813 18.497,-41.309 41.309,-41.309l874.893,-0c22.816,-0 41.31,18.496 41.31,41.309l-0,563.069l-957.512,0l-0,-563.069Z" style="fill:#4a4a4a;fill-rule:nonzero;stroke:#b5e93b;stroke-width:49.57px;"/><path d="M735.527,1458.66l1225.76,0l0,49.433c0,54.756 -44.389,99.143 -99.142,99.143l-1027.48,-0c-54.756,-0 -99.143,-44.387 -99.143,-99.143l0,-49.433Z" style="fill:#b5e93b;fill-rule:nonzero;"/><path d="M1478.41,1514.38c0,10.25 -8.321,18.572 -18.572,18.572l-185.722,-0c-10.25,-0 -18.572,-8.322 -18.572,-18.572c0,-10.251 8.322,-18.572 18.572,-18.572l185.722,-0c10.251,-0 18.572,8.321 18.572,18.572Z" style="fill:#140754;"/><path d="M933.8,500.944c-214.81,-33.048 -297.425,82.616 -323.017,281.384" style="fill:none;fill-rule:nonzero;stroke:#fffdfd;stroke-width:66.1px;stroke-linecap:round;"/><path d="M950.33,319.18c-332.564,-31.919 -520.76,165.336 -534.096,458.697" style="fill:none;fill-rule:nonzero;stroke:#fffdfd;stroke-width:66.1px;stroke-linecap:round;"/></g></svg>