<svg width="66" height="60" viewBox="0 0 66 60" fill="none" xmlns="http://www.w3.org/2000/svg">
<path fill-rule="evenodd" clip-rule="evenodd" d="M63.6955 15.7639L58.0137 23.7083L52.3319 15.7639H55.4298C55.1937 9.86111 50.3176 5.13889 44.358 5.13889C39.3291 5.13889 35.0643 8.51389 33.7168 13.1111C32.0776 12.5833 30.3828 12.25 28.6602 12.0972C28.8546 11.3611 29.1047 10.625 29.4103 9.91667C30.2299 7.98611 31.3969 6.25 32.8833 4.76389C34.3697 3.27778 36.1062 2.09722 38.0372 1.29167C40.0376 0.430556 42.1631 0 44.358 0C46.5529 0 48.6784 0.430556 50.6788 1.27778C52.6098 2.09722 54.3463 3.26389 55.8327 4.75C57.3191 6.23611 58.4861 7.97222 59.3057 9.90278C60.0975 11.7639 60.5282 13.7361 60.5698 15.7639H63.6955Z" fill="#B5E93B"/>
<path fill-rule="evenodd" clip-rule="evenodd" d="M55.7497 59.9999V56.5832H36.1621C36.301 56.5138 36.4399 56.4582 36.5789 56.3888C38.7043 55.3749 40.6631 54.0554 42.4135 52.4443C42.6496 52.2221 42.8719 52.0138 43.0803 51.8054C43.3164 51.5693 43.5665 51.3193 43.8027 51.0554C44.0805 50.7499 44.3583 50.4304 44.6084 50.111H55.7497V46.6943L65.0573 53.3471L55.7497 59.9999Z" fill="#B5E93B"/>
<path fill-rule="evenodd" clip-rule="evenodd" d="M48.5251 35.3195C48.5251 38.2778 47.9416 41.1528 46.8025 43.8611C45.83 46.1667 44.4686 48.2778 42.7738 50.125C42.5515 50.3611 42.3293 50.5973 42.107 50.8334C41.8986 51.0417 41.6902 51.2361 41.4819 51.4445C39.8426 52.9584 38.0089 54.1945 36.0085 55.1528C35.7306 55.2917 35.4389 55.4167 35.1472 55.5417C35.1333 55.5417 35.1333 55.5556 35.1194 55.5556C33.4524 56.2639 31.6603 56.6111 29.8405 56.6111H0.945312V50.1528H27.7706C35.8834 50.1528 42.5377 43.6667 42.6488 35.5556C42.6488 35.4861 42.6488 35.4167 42.6488 35.3473C42.6488 26.4861 35.4528 19.2917 26.5898 19.2917C17.7267 19.2639 10.5307 26.4445 10.5307 35.3195H14.2538L7.59953 44.625L0.945312 35.3195H4.66834C4.66834 32.3611 5.2518 29.4861 6.39094 26.7778C7.50229 24.1667 9.07207 21.8195 11.0864 19.8056C13.1007 17.7917 15.4485 16.2084 18.0601 15.1111C20.7691 13.9722 23.6447 13.3889 26.6036 13.3889C27.201 13.3889 27.7845 13.4167 28.3679 13.4584C30.0905 13.5972 31.7714 13.9306 33.4107 14.4722C33.9941 14.6667 34.5637 14.875 35.1333 15.125C37.745 16.2361 40.0927 17.8056 42.107 19.8195C44.1213 21.8334 45.705 24.1806 46.8025 26.7917C47.9416 29.4861 48.5251 32.3611 48.5251 35.3195Z" fill="#B5E93B"/>
</svg>
