<svg width="65" height="303" viewBox="0 0 65 303" fill="none" xmlns="http://www.w3.org/2000/svg">
<mask id="path-1-outside-1_3113_1888" maskUnits="userSpaceOnUse" x="8" y="0" width="57" height="302" fill="black">
<rect fill="white" x="8" width="57" height="302"/>
<path d="M51 265.2H20.22V265.308L51 276.432V281.832L20.22 292.902V293.01H51V298.14H13.2V290.526L44.736 279.186V279.078L13.2 267.684L13.2 260.07H51V265.2ZM61.8 248.419L49.758 243.721L24 254.143V248.905L43.224 241.237V241.129L24 233.515V228.277L61.8 243.289L61.8 248.419ZM31.02 208.333H16.548L12.93 202.069V189.487L16.548 183.223H22.11V188.623H17.79V202.933H29.238V189.487L32.856 183.223H47.652L51.27 189.487V202.609L47.652 208.873H42.09V203.473H46.41V188.623H34.638V202.069L31.02 208.333ZM11.58 168.831H37.446V168.723L24 157.599V151.335L36.204 161.757L51 149.715V156.141L39.93 164.889L44.574 168.831H51V174.069H11.58V168.831ZM24 140.143H51V145.381H24V140.143ZM17.358 145.651H11.58V139.873H17.358V145.651ZM51 125.248L47.382 131.512H11.58V126.274H46.302V119.794H51V125.248ZM51 108.109L47.382 114.373H11.58V109.135H46.302V102.655H51V108.109ZM31.02 82.6673H16.548L12.93 76.4033V63.8213L16.548 57.5573H22.11V62.9573H17.79V77.2673H29.238V63.8213L32.856 57.5573H47.652L51.27 63.8213V76.9433L47.652 83.2073H42.09V77.8073H46.41V62.9573H34.638V76.4033L31.02 82.6673ZM46.302 27.0727H51V42.1387L47.382 48.4027H27.348L23.73 42.1387V33.3367L27.348 27.0727H39.336V43.1647H46.302V27.0727ZM28.428 43.1647H34.638V32.3107H28.428V43.1647ZM28.698 20.6095H24V15.6415H19.464L16.44 10.4035H24V3.92353H28.698V10.4035H46.302V3.92353H51V9.37753L47.382 15.6415H28.698V20.6095Z"/>
</mask>
<path d="M51 265.2V268.2H54V265.2H51ZM20.22 265.2V262.2H17.22V265.2H20.22ZM20.22 265.308H17.22V267.414L19.2003 268.129L20.22 265.308ZM51 276.432H54V274.326L52.0197 273.611L51 276.432ZM51 281.832L52.0153 284.655L54 283.941V281.832H51ZM20.22 292.902L19.2047 290.079L17.22 290.793V292.902H20.22ZM20.22 293.01H17.22V296.01H20.22V293.01ZM51 293.01H54V290.01H51V293.01ZM51 298.14V301.14H54V298.14H51ZM13.2 298.14H10.2V301.14H13.2V298.14ZM13.2 290.526L12.1849 287.703L10.2 288.417L10.2 290.526H13.2ZM44.736 279.186L45.7511 282.009L47.736 281.295V279.186H44.736ZM44.736 279.078H47.736V276.972L45.7554 276.257L44.736 279.078ZM13.2 267.684H10.2V269.79L12.1806 270.505L13.2 267.684ZM13.2 260.07V257.07H10.2V260.07H13.2ZM51 260.07H54V257.07H51V260.07ZM51 262.2H20.22V268.2H51V262.2ZM17.22 265.2V265.308H23.22V265.2H17.22ZM19.2003 268.129L49.9803 279.253L52.0197 273.611L21.2397 262.487L19.2003 268.129ZM48 276.432V281.832H54V276.432H48ZM49.9847 279.009L19.2047 290.079L21.2353 295.725L52.0153 284.655L49.9847 279.009ZM17.22 292.902V293.01H23.22V292.902H17.22ZM20.22 296.01H51V290.01H20.22V296.01ZM48 293.01V298.14H54V293.01H48ZM51 295.14H13.2V301.14H51V295.14ZM16.2 298.14V290.526H10.2V298.14H16.2ZM14.2151 293.349L45.7511 282.009L43.7209 276.363L12.1849 287.703L14.2151 293.349ZM47.736 279.186V279.078H41.736V279.186H47.736ZM45.7554 276.257L14.2194 264.863L12.1806 270.505L43.7166 281.899L45.7554 276.257ZM16.2 267.684V260.07H10.2L10.2 267.684H16.2ZM13.2 263.07H51V257.07H13.2L13.2 263.07ZM48 260.07V265.2H54V260.07H48ZM61.8 248.419L60.7096 251.213L64.8 252.809V248.419H61.8ZM49.758 243.721L50.8484 240.926L49.7378 240.493L48.6328 240.94L49.758 243.721ZM24 254.143H21V258.593L25.1252 256.924L24 254.143ZM24 248.905L22.8885 246.118L21 246.871V248.905H24ZM43.224 241.237L44.3355 244.023L46.224 243.27V241.237H43.224ZM43.224 241.129H46.224V239.09L44.3287 238.339L43.224 241.129ZM24 233.515H21V235.553L22.8953 236.304L24 233.515ZM24 228.277L25.1073 225.488L21 223.857V228.277H24ZM61.8 243.289H64.8V241.252L62.9073 240.5L61.8 243.289ZM62.8904 245.624L50.8484 240.926L48.6676 246.515L60.7096 251.213L62.8904 245.624ZM48.6328 240.94L22.8748 251.362L25.1252 256.924L50.8832 246.502L48.6328 240.94ZM27 254.143V248.905H21V254.143H27ZM25.1115 251.691L44.3355 244.023L42.1125 238.45L22.8885 246.118L25.1115 251.691ZM46.224 241.237V241.129H40.224V241.237H46.224ZM44.3287 238.339L25.1047 230.725L22.8953 236.304L42.1193 243.918L44.3287 238.339ZM27 233.515V228.277H21V233.515H27ZM22.8927 231.065L60.6927 246.077L62.9073 240.5L25.1073 225.488L22.8927 231.065ZM58.8 243.289L58.8 248.419H64.8V243.289H58.8ZM31.02 208.333V211.333H32.7517L33.6178 209.834L31.02 208.333ZM16.548 208.333L13.9502 209.834L14.8163 211.333H16.548V208.333ZM12.93 202.069H9.93V202.873L10.3322 203.57L12.93 202.069ZM12.93 189.487L10.3322 187.987L9.93 188.683V189.487H12.93ZM16.548 183.223V180.223H14.8163L13.9502 181.723L16.548 183.223ZM22.11 183.223H25.11V180.223H22.11V183.223ZM22.11 188.623V191.623H25.11V188.623H22.11ZM17.79 188.623V185.623H14.79V188.623H17.79ZM17.79 202.933H14.79L14.79 205.933H17.79V202.933ZM29.238 202.933V205.933H32.238V202.933H29.238ZM29.238 189.487L26.6402 187.987L26.238 188.683V189.487H29.238ZM32.856 183.223V180.223H31.1243L30.2582 181.723L32.856 183.223ZM47.652 183.223L50.2498 181.723L49.3837 180.223H47.652V183.223ZM51.27 189.487H54.27V188.683L53.8678 187.987L51.27 189.487ZM51.27 202.609L53.8678 204.11L54.27 203.413V202.609H51.27ZM47.652 208.873V211.873H49.3837L50.2498 210.374L47.652 208.873ZM42.09 208.873H39.09V211.873H42.09V208.873ZM42.09 203.473V200.473H39.09V203.473H42.09ZM46.41 203.473V206.473H49.41V203.473H46.41ZM46.41 188.623H49.41V185.623H46.41V188.623ZM34.638 188.623V185.623H31.638V188.623H34.638ZM34.638 202.069L37.2358 203.57L37.638 202.873V202.069H34.638ZM31.02 205.333H16.548V211.333H31.02V205.333ZM19.1458 206.833L15.5278 200.569L10.3322 203.57L13.9502 209.834L19.1458 206.833ZM15.93 202.069V189.487H9.93V202.069H15.93ZM15.5278 190.988L19.1458 184.724L13.9502 181.723L10.3322 187.987L15.5278 190.988ZM16.548 186.223H22.11V180.223H16.548V186.223ZM19.11 183.223V188.623H25.11V183.223H19.11ZM22.11 185.623H17.79V191.623H22.11V185.623ZM14.79 188.623V202.933H20.79V188.623H14.79ZM17.79 205.933H29.238V199.933H17.79V205.933ZM32.238 202.933V189.487H26.238V202.933H32.238ZM31.8358 190.988L35.4538 184.724L30.2582 181.723L26.6402 187.987L31.8358 190.988ZM32.856 186.223H47.652V180.223H32.856V186.223ZM45.0542 184.724L48.6722 190.988L53.8678 187.987L50.2498 181.723L45.0542 184.724ZM48.27 189.487V202.609H54.27V189.487H48.27ZM48.6722 201.109L45.0542 207.373L50.2498 210.374L53.8678 204.11L48.6722 201.109ZM47.652 205.873H42.09V211.873H47.652V205.873ZM45.09 208.873V203.473H39.09V208.873H45.09ZM42.09 206.473H46.41V200.473H42.09V206.473ZM49.41 203.473V188.623H43.41V203.473H49.41ZM46.41 185.623H34.638V191.623H46.41V185.623ZM31.638 188.623V202.069H37.638V188.623H31.638ZM32.0402 200.569L28.4222 206.833L33.6178 209.834L37.2358 203.57L32.0402 200.569ZM11.58 168.831V165.831H8.58V168.831H11.58ZM37.446 168.831V171.831H40.446V168.831H37.446ZM37.446 168.723H40.446V167.311L39.3583 166.411L37.446 168.723ZM24 157.599H21V159.01L22.0877 159.91L24 157.599ZM24 151.335L25.9482 149.053L21 144.828V151.335H24ZM36.204 161.757L34.2558 164.038L36.1578 165.662L38.0977 164.083L36.204 161.757ZM51 149.715H54V143.405L49.1063 147.388L51 149.715ZM51 156.141L52.8601 158.494L54 157.594V156.141H51ZM39.93 164.889L38.07 162.535L35.1964 164.806L37.9886 167.176L39.93 164.889ZM44.574 168.831L42.6326 171.118L43.4724 171.831H44.574V168.831ZM51 168.831H54V165.831H51V168.831ZM51 174.069V177.069H54V174.069H51ZM11.58 174.069H8.58L8.58 177.069H11.58L11.58 174.069ZM11.58 171.831H37.446V165.831H11.58V171.831ZM40.446 168.831V168.723H34.446V168.831H40.446ZM39.3583 166.411L25.9123 155.287L22.0877 159.91L35.5337 171.034L39.3583 166.411ZM27 157.599V151.335H21V157.599H27ZM22.0518 153.616L34.2558 164.038L38.1522 159.475L25.9482 149.053L22.0518 153.616ZM38.0977 164.083L52.8937 152.041L49.1063 147.388L34.3103 159.43L38.0977 164.083ZM48 149.715V156.141H54V149.715H48ZM49.1399 153.787L38.07 162.535L41.7901 167.242L52.8601 158.494L49.1399 153.787ZM37.9886 167.176L42.6326 171.118L46.5154 166.544L41.8714 162.602L37.9886 167.176ZM44.574 171.831H51V165.831H44.574V171.831ZM48 168.831V174.069H54V168.831H48ZM51 171.069H11.58L11.58 177.069H51V171.069ZM14.58 174.069V168.831H8.58V174.069H14.58ZM24 140.143V137.143H21V140.143H24ZM51 140.143H54V137.143H51V140.143ZM51 145.381V148.381H54V145.381H51ZM24 145.381H21V148.381H24V145.381ZM17.358 145.651V148.651H20.358V145.651H17.358ZM11.58 145.651H8.58L8.58 148.651H11.58L11.58 145.651ZM11.58 139.873V136.873H8.58V139.873H11.58ZM17.358 139.873H20.358V136.873H17.358V139.873ZM24 143.143H51V137.143H24V143.143ZM48 140.143V145.381H54V140.143H48ZM51 142.381H24V148.381H51V142.381ZM27 145.381V140.143H21V145.381H27ZM17.358 142.651H11.58L11.58 148.651H17.358V142.651ZM14.58 145.651V139.873H8.58V145.651H14.58ZM11.58 142.873H17.358V136.873H11.58V142.873ZM14.358 139.873V145.651H20.358V139.873H14.358ZM51 125.248L53.5978 126.748L54 126.052V125.248H51ZM47.382 131.512L47.382 134.512H49.1137L49.9798 133.012L47.382 131.512ZM11.58 131.512H8.58V134.512H11.58V131.512ZM11.58 126.274V123.274H8.58V126.274H11.58ZM46.302 126.274V129.274H49.302V126.274H46.302ZM46.302 119.794V116.794H43.302V119.794H46.302ZM51 119.794H54V116.794H51V119.794ZM48.4022 123.748L44.7842 130.012L49.9798 133.012L53.5978 126.748L48.4022 123.748ZM47.382 128.512H11.58V134.512H47.382L47.382 128.512ZM14.58 131.512V126.274H8.58V131.512H14.58ZM11.58 129.274H46.302V123.274H11.58V129.274ZM49.302 126.274V119.794H43.302V126.274H49.302ZM46.302 122.794H51V116.794H46.302V122.794ZM48 119.794V125.248H54V119.794H48ZM51 108.109L53.5978 109.61L54 108.913V108.109H51ZM47.382 114.373V117.373H49.1137L49.9798 115.874L47.382 114.373ZM11.58 114.373H8.58V117.373H11.58V114.373ZM11.58 109.135V106.135H8.58V109.135H11.58ZM46.302 109.135V112.135H49.302V109.135H46.302ZM46.302 102.655V99.6554H43.302V102.655H46.302ZM51 102.655H54V99.6554H51V102.655ZM48.4022 106.609L44.7842 112.873L49.9798 115.874L53.5978 109.61L48.4022 106.609ZM47.382 111.373H11.58V117.373H47.382V111.373ZM14.58 114.373V109.135H8.58V114.373H14.58ZM11.58 112.135H46.302V106.135H11.58V112.135ZM49.302 109.135V102.655H43.302V109.135H49.302ZM46.302 105.655H51V99.6554H46.302V105.655ZM48 102.655V108.109H54V102.655H48ZM31.02 82.6673V85.6673H32.7517L33.6178 84.1678L31.02 82.6673ZM16.548 82.6673L13.9502 84.1678L14.8163 85.6673H16.548V82.6673ZM12.93 76.4033H9.93V77.2075L10.3322 77.9038L12.93 76.4033ZM12.93 63.8214L10.3322 62.3209L9.93 63.0172L9.93 63.8214H12.93ZM16.548 57.5573V54.5573H14.8163L13.9502 56.0569L16.548 57.5573ZM22.11 57.5573H25.11V54.5573H22.11V57.5573ZM22.11 62.9573V65.9573H25.11V62.9573H22.11ZM17.79 62.9573V59.9573H14.79V62.9573H17.79ZM17.79 77.2673H14.79V80.2673H17.79V77.2673ZM29.238 77.2673V80.2673H32.238V77.2673H29.238ZM29.238 63.8214L26.6402 62.3209L26.238 63.0172V63.8214H29.238ZM32.856 57.5573V54.5573H31.1243L30.2582 56.0569L32.856 57.5573ZM47.652 57.5573L50.2498 56.0569L49.3837 54.5573H47.652V57.5573ZM51.27 63.8214H54.27V63.0172L53.8678 62.3209L51.27 63.8214ZM51.27 76.9433L53.8678 78.4438L54.27 77.7475V76.9433H51.27ZM47.652 83.2073V86.2073H49.3837L50.2498 84.7078L47.652 83.2073ZM42.09 83.2073H39.09V86.2073H42.09V83.2073ZM42.09 77.8073V74.8073H39.09V77.8073H42.09ZM46.41 77.8073V80.8073H49.41V77.8073H46.41ZM46.41 62.9573H49.41V59.9573H46.41V62.9573ZM34.638 62.9573V59.9573H31.638V62.9573H34.638ZM34.638 76.4033L37.2358 77.9038L37.638 77.2075V76.4033H34.638ZM31.02 79.6673H16.548V85.6673H31.02V79.6673ZM19.1458 81.1669L15.5278 74.9029L10.3322 77.9038L13.9502 84.1678L19.1458 81.1669ZM15.93 76.4033V63.8214H9.93V76.4033H15.93ZM15.5278 65.3218L19.1458 59.0578L13.9502 56.0569L10.3322 62.3209L15.5278 65.3218ZM16.548 60.5573H22.11V54.5573H16.548V60.5573ZM19.11 57.5573V62.9573H25.11V57.5573H19.11ZM22.11 59.9573H17.79V65.9573H22.11V59.9573ZM14.79 62.9573L14.79 77.2673H20.79V62.9573H14.79ZM17.79 80.2673H29.238V74.2673H17.79V80.2673ZM32.238 77.2673V63.8214H26.238V77.2673H32.238ZM31.8358 65.3218L35.4538 59.0578L30.2582 56.0569L26.6402 62.3209L31.8358 65.3218ZM32.856 60.5573H47.652V54.5573H32.856V60.5573ZM45.0542 59.0578L48.6722 65.3218L53.8678 62.3209L50.2498 56.0569L45.0542 59.0578ZM48.27 63.8214V76.9433H54.27V63.8214H48.27ZM48.6722 75.4429L45.0542 81.7069L50.2498 84.7078L53.8678 78.4438L48.6722 75.4429ZM47.652 80.2073H42.09V86.2073H47.652V80.2073ZM45.09 83.2073V77.8073H39.09V83.2073H45.09ZM42.09 80.8073H46.41V74.8073H42.09V80.8073ZM49.41 77.8073V62.9573H43.41V77.8073H49.41ZM46.41 59.9573H34.638V65.9573H46.41V59.9573ZM31.638 62.9573V76.4033H37.638V62.9573H31.638ZM32.0402 74.9029L28.4222 81.1669L33.6178 84.1678L37.2358 77.9038L32.0402 74.9029ZM46.302 27.0727V24.0727H43.302V27.0727H46.302ZM51 27.0727H54V24.0727H51V27.0727ZM51 42.1386L53.5978 43.6391L54 42.9428V42.1386H51ZM47.382 48.4026V51.4026H49.1137L49.9798 49.9031L47.382 48.4026ZM27.348 48.4026L24.7502 49.9031L25.6163 51.4026H27.348L27.348 48.4026ZM23.73 42.1386H20.73V42.9428L21.1322 43.6391L23.73 42.1386ZM23.73 33.3367L21.1322 31.8362L20.73 32.5325V33.3367H23.73ZM27.348 27.0727V24.0727H25.6163L24.7502 25.5722L27.348 27.0727ZM39.336 27.0727H42.336V24.0727H39.336V27.0727ZM39.336 43.1646H36.336V46.1646H39.336V43.1646ZM46.302 43.1646V46.1646H49.302V43.1646H46.302ZM28.428 43.1646H25.428V46.1646H28.428V43.1646ZM34.638 43.1646V46.1646H37.638V43.1646H34.638ZM34.638 32.3107H37.638V29.3107H34.638V32.3107ZM28.428 32.3107V29.3107H25.428V32.3107H28.428ZM46.302 30.0727H51V24.0727H46.302V30.0727ZM48 27.0727V42.1386H54V27.0727H48ZM48.4022 40.6382L44.7842 46.9022L49.9798 49.9031L53.5978 43.6391L48.4022 40.6382ZM47.382 45.4026H27.348L27.348 51.4026H47.382V45.4026ZM29.9458 46.9022L26.3278 40.6382L21.1322 43.6391L24.7502 49.9031L29.9458 46.9022ZM26.73 42.1386V33.3367H20.73V42.1386H26.73ZM26.3278 34.8371L29.9458 28.5731L24.7502 25.5722L21.1322 31.8362L26.3278 34.8371ZM27.348 30.0727H39.336V24.0727H27.348V30.0727ZM36.336 27.0727V43.1646H42.336V27.0727H36.336ZM39.336 46.1646H46.302V40.1646H39.336V46.1646ZM49.302 43.1646V27.0727H43.302V43.1646H49.302ZM28.428 46.1646H34.638V40.1646H28.428V46.1646ZM37.638 43.1646V32.3107H31.638V43.1646H37.638ZM34.638 29.3107H28.428V35.3107H34.638V29.3107ZM25.428 32.3107V43.1646H31.428V32.3107H25.428ZM28.698 20.6095V23.6095H31.698V20.6095H28.698ZM24 20.6095H21V23.6095H24V20.6095ZM24 15.6415H27V12.6415H24V15.6415ZM19.464 15.6415L16.8659 17.1415L17.7319 18.6415H19.464V15.6415ZM16.44 10.4035V7.40353H11.244L13.8419 11.9035L16.44 10.4035ZM24 10.4035V13.4035H27V10.4035H24ZM24 3.92352V0.923523H21V3.92352H24ZM28.698 3.92352H31.698V0.923523H28.698V3.92352ZM28.698 10.4035H25.698V13.4035H28.698V10.4035ZM46.302 10.4035V13.4035H49.302V10.4035H46.302ZM46.302 3.92352V0.923523H43.302V3.92352H46.302ZM51 3.92352H54V0.923523H51V3.92352ZM51 9.37753L53.5978 10.878L54 10.1817V9.37753H51ZM47.382 15.6415V18.6415H49.1137L49.9798 17.142L47.382 15.6415ZM28.698 15.6415V12.6415H25.698V15.6415H28.698ZM28.698 17.6095H24V23.6095H28.698V17.6095ZM27 20.6095V15.6415H21V20.6095H27ZM24 12.6415H19.464V18.6415H24V12.6415ZM22.0621 14.1416L19.0381 8.90359L13.8419 11.9035L16.8659 17.1415L22.0621 14.1416ZM16.44 13.4035H24V7.40353H16.44V13.4035ZM27 10.4035V3.92352H21V10.4035H27ZM24 6.92352H28.698V0.923523H24V6.92352ZM25.698 3.92352V10.4035H31.698V3.92352H25.698ZM28.698 13.4035H46.302V7.40353H28.698V13.4035ZM49.302 10.4035V3.92352H43.302V10.4035H49.302ZM46.302 6.92352H51V0.923523H46.302V6.92352ZM48 3.92352V9.37753H54V3.92352H48ZM48.4022 7.87708L44.7842 14.1411L49.9798 17.142L53.5978 10.878L48.4022 7.87708ZM47.382 12.6415H28.698V18.6415H47.382V12.6415ZM25.698 15.6415V20.6095H31.698V15.6415H25.698Z" fill="#B5E93B" mask="url(#path-1-outside-1_3113_1888)"/>
</svg>
