<svg width="57" height="203" viewBox="0 0 57 203" fill="none" xmlns="http://www.w3.org/2000/svg">
<mask id="path-1-outside-1_3113_1920" maskUnits="userSpaceOnUse" x="0" y="0" width="57" height="203" fill="black">
<rect fill="white" width="57" height="203"/>
<path d="M5.2 149.996L43 159.716V166.142L12.706 174.134V174.242L43 182.234V188.66L5.2 198.38V193.142L36.088 185.474V185.366L5.2 177.212V171.164L36.088 163.064V162.956L5.2 155.234V149.996ZM43 138.815L43 144.053H3.58V138.815H17.944L15.73 134.981V126.827L19.348 120.563H43V125.801H20.428V138.815H43ZM53.8 109.454L41.758 104.756L16 115.178V109.94L35.224 102.272V102.164L16 94.5498V89.3118L53.8 104.324V109.454ZM19.348 33.5665H43V38.8045H20.428V49.1185H43V54.3565H20.428L20.428 64.6705H43V69.9085H15.73V65.9665L17.944 64.6705L15.73 60.8365L15.73 55.3825L18.646 50.3605L15.73 45.2845V39.8305L19.348 33.5665ZM38.302 3.59609H43V18.6621L39.382 24.9261H19.348L15.73 18.6621V9.86009L19.348 3.59609H31.336V19.6881H38.302V3.59609ZM20.428 19.6881H26.638V8.83409H20.428V19.6881Z"/>
</mask>
<path d="M5.2 149.996L5.94712 147.091L2.2 146.127V149.996H5.2ZM43 159.716H46V157.39L43.7471 156.811L43 159.716ZM43 166.142L43.7653 169.043L46 168.453V166.142H43ZM12.706 174.134L11.9407 171.233L9.706 171.823V174.134H12.706ZM12.706 174.242H9.706V176.553L11.9407 177.143L12.706 174.242ZM43 182.234H46V179.923L43.7653 179.333L43 182.234ZM43 188.66L43.7471 191.565L46 190.986V188.66H43ZM5.2 198.38H2.2V202.249L5.94712 201.285L5.2 198.38ZM5.2 193.142L4.47718 190.23L2.2 190.796V193.142H5.2ZM36.088 185.474L36.8108 188.386L39.088 187.82V185.474H36.088ZM36.088 185.366H39.088V183.055L36.8537 182.465L36.088 185.366ZM5.2 177.212H2.2V179.523L4.43427 180.113L5.2 177.212ZM5.2 171.164L4.43902 168.262L2.2 168.849V171.164H5.2ZM36.088 163.064L36.849 165.966L39.088 165.379V163.064H36.088ZM36.088 162.956H39.088V160.614L36.8156 160.046L36.088 162.956ZM5.2 155.234H2.2V157.576L4.47239 158.144L5.2 155.234ZM4.45287 152.901L42.2529 162.621L43.7471 156.811L5.94712 147.091L4.45287 152.901ZM40 159.716V166.142H46V159.716H40ZM42.2347 163.241L11.9407 171.233L13.4713 177.035L43.7653 169.043L42.2347 163.241ZM9.706 174.134V174.242H15.706V174.134H9.706ZM11.9407 177.143L42.2347 185.135L43.7653 179.333L13.4713 171.341L11.9407 177.143ZM40 182.234V188.66H46V182.234H40ZM42.2529 185.755L4.45287 195.475L5.94712 201.285L43.7471 191.565L42.2529 185.755ZM8.2 198.38V193.142H2.2V198.38H8.2ZM5.92281 196.054L36.8108 188.386L35.3652 182.562L4.47718 190.23L5.92281 196.054ZM39.088 185.474V185.366H33.088V185.474H39.088ZM36.8537 182.465L5.96572 174.311L4.43427 180.113L35.3223 188.267L36.8537 182.465ZM8.2 177.212L8.2 171.164H2.2V177.212H8.2ZM5.96098 174.066L36.849 165.966L35.327 160.162L4.43902 168.262L5.96098 174.066ZM39.088 163.064V162.956H33.088V163.064H39.088ZM36.8156 160.046L5.9276 152.324L4.47239 158.144L35.3604 165.866L36.8156 160.046ZM8.2 155.234V149.996H2.2V155.234H8.2ZM43 138.815H46V135.815H43V138.815ZM43 144.053V147.053H46V144.053H43ZM3.58 144.053H0.579999V147.053H3.58V144.053ZM3.58 138.815V135.815H0.579999V138.815H3.58ZM17.944 138.815V141.815H23.1407L20.5419 137.315L17.944 138.815ZM15.73 134.981H12.73V135.785L13.1321 136.481L15.73 134.981ZM15.73 126.827L13.1322 125.327L12.73 126.023V126.827H15.73ZM19.348 120.563V117.563H17.6163L16.7502 119.063L19.348 120.563ZM43 120.563H46V117.563H43V120.563ZM43 125.801V128.801H46V125.801H43ZM20.428 125.801V122.801H17.428V125.801H20.428ZM20.428 138.815H17.428V141.815H20.428V138.815ZM40 138.815L40 144.053H46L46 138.815H40ZM43 141.053H3.58V147.053H43L43 141.053ZM6.58 144.053V138.815H0.579999V144.053H6.58ZM3.58 141.815H17.944V135.815H3.58V141.815ZM20.5419 137.315L18.3279 133.481L13.1321 136.481L15.3461 140.315L20.5419 137.315ZM18.73 134.981V126.827H12.73V134.981H18.73ZM18.3278 128.328L21.9458 122.064L16.7502 119.063L13.1322 125.327L18.3278 128.328ZM19.348 123.563H43V117.563H19.348V123.563ZM40 120.563V125.801H46V120.563H40ZM43 122.801H20.428V128.801H43V122.801ZM17.428 125.801V138.815H23.428V125.801H17.428ZM20.428 141.815H43V135.815H20.428V141.815ZM53.8 109.454L52.7096 112.249L56.8 113.844V109.454H53.8ZM41.758 104.756L42.8484 101.961L41.7378 101.528L40.6328 101.975L41.758 104.756ZM16 115.178H13L13 119.628L17.1252 117.959L16 115.178ZM16 109.94L14.8885 107.153L13 107.907V109.94H16ZM35.224 102.272L36.3355 105.058L38.224 104.305V102.272H35.224ZM35.224 102.164H38.224V100.125L36.3287 99.3746L35.224 102.164ZM16 94.5498H13V96.5883L14.8953 97.339L16 94.5498ZM16 89.3118L17.1073 86.5236L13 84.8925V89.3118H16ZM53.8 104.324H56.8V102.287L54.9073 101.536L53.8 104.324ZM54.8904 106.659L42.8484 101.961L40.6676 107.551L52.7096 112.249L54.8904 106.659ZM40.6328 101.975L14.8748 112.397L17.1252 117.959L42.8832 107.537L40.6328 101.975ZM19 115.178V109.94H13V115.178H19ZM17.1115 112.726L36.3355 105.058L34.1125 99.4853L14.8885 107.153L17.1115 112.726ZM38.224 102.272V102.164H32.224V102.272H38.224ZM36.3287 99.3746L17.1047 91.7606L14.8953 97.339L34.1193 104.953L36.3287 99.3746ZM19 94.5498V89.3118H13V94.5498H19ZM14.8927 92.1L52.6927 107.112L54.9073 101.536L17.1073 86.5236L14.8927 92.1ZM50.8 104.324V109.454H56.8V104.324H50.8ZM19.348 33.5665V30.5665H17.6163L16.7502 32.0661L19.348 33.5665ZM43 33.5665H46L46 30.5665H43L43 33.5665ZM43 38.8045V41.8045H46V38.8045H43ZM20.428 38.8045V35.8045H17.428V38.8045H20.428ZM20.428 49.1185H17.428V52.1185H20.428V49.1185ZM43 49.1185H46V46.1185H43V49.1185ZM43 54.3565V57.3565H46V54.3565H43ZM20.428 54.3565V51.3565H17.428V54.3565H20.428ZM20.428 64.6705H17.428V67.6705H20.428V64.6705ZM43 64.6705H46V61.6705H43V64.6705ZM43 69.9085V72.9085H46V69.9085H43ZM15.73 69.9085H12.73V72.9085H15.73V69.9085ZM15.73 65.9665L14.2145 63.3775L12.73 64.2464V65.9665H15.73ZM17.944 64.6705L19.4595 67.2596L22.0333 65.7529L20.5419 63.1703L17.944 64.6705ZM15.73 60.8365H12.73V61.6405L13.1321 62.3367L15.73 60.8365ZM15.73 55.3825L13.1356 53.8761L12.73 54.5747V55.3825H15.73ZM18.646 50.3605L21.2404 51.8669L22.1104 50.3685L21.2473 48.8661L18.646 50.3605ZM15.73 45.2845H12.73V46.0849L13.1287 46.7789L15.73 45.2845ZM15.73 39.8305L13.1322 38.33L12.73 39.0264V39.8305H15.73ZM19.348 36.5665H43L43 30.5665H19.348V36.5665ZM40 33.5665V38.8045H46V33.5665H40ZM43 35.8045H20.428V41.8045H43V35.8045ZM17.428 38.8045V49.1185H23.428V38.8045H17.428ZM20.428 52.1185H43V46.1185H20.428V52.1185ZM40 49.1185V54.3565H46V49.1185H40ZM43 51.3565H20.428V57.3565H43V51.3565ZM17.428 54.3565L17.428 64.6705H23.428L23.428 54.3565H17.428ZM20.428 67.6705H43V61.6705H20.428V67.6705ZM40 64.6705V69.9085H46V64.6705H40ZM43 66.9085H15.73V72.9085H43V66.9085ZM18.73 69.9085V65.9665H12.73V69.9085H18.73ZM17.2455 68.5556L19.4595 67.2596L16.4285 62.0815L14.2145 63.3775L17.2455 68.5556ZM20.5419 63.1703L18.3279 59.3363L13.1321 62.3367L15.3461 66.1707L20.5419 63.1703ZM18.73 60.8365L18.73 55.3825H12.73L12.73 60.8365H18.73ZM18.3244 56.8889L21.2404 51.8669L16.0516 48.8541L13.1356 53.8761L18.3244 56.8889ZM21.2473 48.8661L18.3313 43.7901L13.1287 46.7789L16.0447 51.8549L21.2473 48.8661ZM18.73 45.2845V39.8305H12.73V45.2845H18.73ZM18.3278 41.331L21.9458 35.067L16.7502 32.0661L13.1322 38.33L18.3278 41.331ZM38.302 3.5961V0.5961H35.302V3.5961H38.302ZM43 3.5961H46V0.5961H43V3.5961ZM43 18.6621L45.5978 20.1626L46 19.4662V18.6621H43ZM39.382 24.9261V27.9261H41.1137L41.9798 26.4266L39.382 24.9261ZM19.348 24.9261L16.7502 26.4266L17.6163 27.9261H19.348V24.9261ZM15.73 18.6621H12.73V19.4662L13.1322 20.1626L15.73 18.6621ZM15.73 9.86009L13.1322 8.35963L12.73 9.05595V9.86009H15.73ZM19.348 3.5961L19.348 0.5961H17.6163L16.7502 2.09563L19.348 3.5961ZM31.336 3.5961H34.336V0.5961H31.336V3.5961ZM31.336 19.6881H28.336V22.6881H31.336V19.6881ZM38.302 19.6881V22.6881H41.302V19.6881H38.302ZM20.428 19.6881H17.428V22.6881H20.428V19.6881ZM26.638 19.6881V22.6881H29.638V19.6881H26.638ZM26.638 8.83409H29.638V5.83409H26.638V8.83409ZM20.428 8.83409V5.83409H17.428V8.83409H20.428ZM38.302 6.5961H43V0.5961H38.302V6.5961ZM40 3.5961V18.6621H46V3.5961H40ZM40.4022 17.1616L36.7842 23.4256L41.9798 26.4266L45.5978 20.1626L40.4022 17.1616ZM39.382 21.9261H19.348V27.9261H39.382V21.9261ZM21.9458 23.4256L18.3278 17.1616L13.1322 20.1626L16.7502 26.4266L21.9458 23.4256ZM18.73 18.6621V9.86009H12.73V18.6621H18.73ZM18.3278 11.3605L21.9458 5.09656L16.7502 2.09563L13.1322 8.35963L18.3278 11.3605ZM19.348 6.5961H31.336V0.5961H19.348L19.348 6.5961ZM28.336 3.5961V19.6881H34.336V3.5961H28.336ZM31.336 22.6881H38.302V16.6881H31.336V22.6881ZM41.302 19.6881V3.5961H35.302V19.6881H41.302ZM20.428 22.6881H26.638V16.6881H20.428V22.6881ZM29.638 19.6881V8.83409H23.638V19.6881H29.638ZM26.638 5.83409H20.428V11.8341H26.638V5.83409ZM17.428 8.83409V19.6881H23.428V8.83409H17.428Z" fill="#B5E93B" mask="url(#path-1-outside-1_3113_1920)"/>
</svg>
